<svg width="30" height="30" viewBox="0 0 30 30" fill="none" xmlns="http://www.w3.org/2000/svg">
<rect width="30" height="30" fill="white"/>
<path d="M8.75337 14.4243L8.75291 14.4248C8.68187 14.4958 8.61242 14.5987 8.57533 14.71C8.51396 14.8941 8.50797 15.1168 8.57771 15.297C8.61534 15.4056 8.68336 15.5057 8.75291 15.5752L8.75337 15.5757L13.2998 20.0987C13.2998 20.0987 13.2998 20.0987 13.2999 20.0987C13.4688 20.2677 13.6754 20.3359 13.875 20.3359C14.0746 20.3359 14.2812 20.2676 14.4502 20.0987C14.7588 19.7901 14.7588 19.2568 14.4502 18.9482L11.3145 15.8125H20.6719C21.1146 15.8125 21.4844 15.4428 21.4844 15C21.4844 14.5506 21.1079 14.1875 20.6484 14.1875H11.3145L14.4502 11.0518C14.7588 10.7432 14.7588 10.2099 14.4502 9.90135C14.1417 9.59281 13.6085 9.59278 13.2999 9.90126C13.2998 9.90129 13.2998 9.90132 13.2998 9.90135L8.75337 14.4243ZM15 2.86719C8.29943 2.86719 2.86719 8.29943 2.86719 15C2.86719 21.7006 8.29943 27.1328 15 27.1328C21.7006 27.1328 27.1328 21.7006 27.1328 15C27.1328 8.29943 21.7006 2.86719 15 2.86719ZM15 25.5078C9.20838 25.5078 4.49219 20.7916 4.49219 15C4.49219 9.20838 9.20838 4.49219 15 4.49219C20.7916 4.49219 25.5078 9.20838 25.5078 15C25.5078 20.7916 20.7916 25.5078 15 25.5078Z" fill="#4F46BB" stroke="white" stroke-width="0.5"/>
</svg>
