<svg width="24" height="25" viewBox="0 0 24 25" fill="none" xmlns="http://www.w3.org/2000/svg">
<path d="M2 12.8934C2 10.6049 2 9.46073 2.5192 8.5122C3.0384 7.56366 3.98695 6.97497 5.88403 5.79758L7.88403 4.55632C9.88939 3.31174 10.8921 2.68945 12 2.68945C13.1079 2.68945 14.1106 3.31174 16.116 4.55632L18.116 5.79758C20.0131 6.97497 20.9616 7.56366 21.4808 8.5122C22 9.46073 22 10.6049 22 12.8934V14.4144C22 18.3153 22 20.2657 20.8284 21.4776C19.6569 22.6895 17.7712 22.6895 14 22.6895H10C6.22876 22.6895 4.34315 22.6895 3.17157 21.4776C2 20.2657 2 18.3153 2 14.4144V12.8934Z" stroke="white" stroke-width="1.5"/>
<path d="M15 14.6895L12 14.6895M12 14.6895L9 14.6895M12 14.6895L12 11.6895M12 14.6895L12 17.6895" stroke="white" stroke-width="1.5" stroke-linecap="round"/>
</svg>
