<svg width="16" height="16" viewBox="0 0 16 16" fill="none" xmlns="http://www.w3.org/2000/svg">
<path fill-rule="evenodd" clip-rule="evenodd" d="M6.28354 6.83455C6.55831 6.80708 6.80332 7.00755 6.83078 7.28235L7.16412 10.6157C7.19165 10.8904 6.99112 11.1355 6.71638 11.1629C6.4416 11.1904 6.19658 10.9899 6.1691 10.7151L5.83577 7.38181C5.80829 7.10708 6.00876 6.86201 6.28354 6.83455Z" fill="#FF3535"/>
<path fill-rule="evenodd" clip-rule="evenodd" d="M9.71637 6.83455C9.9911 6.86201 10.1916 7.10708 10.1641 7.38181L9.83077 10.7151C9.8033 10.9899 9.5583 11.1904 9.2835 11.1629C9.00877 11.1355 8.8083 10.8904 8.83577 10.6157L9.1691 7.28235C9.19657 7.00755 9.44157 6.80708 9.71637 6.83455Z" fill="#FF3535"/>
<path fill-rule="evenodd" clip-rule="evenodd" d="M6.74904 0.832044H9.00337C9.14764 0.831951 9.2733 0.831871 9.39197 0.850824C9.86084 0.925691 10.2666 1.21813 10.4858 1.63926C10.5414 1.74585 10.581 1.8651 10.6266 2.00199L10.701 2.22526C10.7136 2.26305 10.7172 2.27375 10.7202 2.28218C10.837 2.60492 11.1396 2.82309 11.4828 2.83179C11.4918 2.83202 11.5028 2.83206 11.5428 2.83206H13.5428C13.819 2.83206 14.0428 3.05591 14.0428 3.33206C14.0428 3.6082 13.819 3.83206 13.5428 3.83206H2.20947C1.93333 3.83206 1.70947 3.6082 1.70947 3.33206C1.70947 3.05591 1.93333 2.83206 2.20947 2.83206H4.20953C4.24956 2.83206 4.26061 2.83202 4.26963 2.83179C4.61273 2.82309 4.91541 2.60494 5.03216 2.28219C5.03523 2.2737 5.03876 2.26324 5.05142 2.22526L5.12582 2.002C5.17135 1.86512 5.21103 1.74585 5.26653 1.63926C5.48583 1.21813 5.89156 0.925691 6.36043 0.850824C6.47911 0.831871 6.60479 0.831951 6.74904 0.832044ZM5.88157 2.83206C5.91591 2.76471 5.94635 2.69472 5.97253 2.62235C5.98047 2.60037 5.98827 2.57698 5.99829 2.54692L6.06483 2.34731C6.12561 2.16497 6.1396 2.12778 6.15348 2.10112C6.22658 1.96074 6.36183 1.86327 6.51811 1.83831C6.5478 1.83357 6.58749 1.83206 6.77971 1.83206H8.97271C9.16491 1.83206 9.20457 1.83357 9.23431 1.83831C9.39057 1.86327 9.52584 1.96074 9.59891 2.10112C9.61277 2.12778 9.62677 2.16496 9.68757 2.34731L9.75404 2.5468L9.77991 2.62236C9.80604 2.69473 9.83651 2.76471 9.87084 2.83206H5.88157Z" fill="#FF3535"/>
<path fill-rule="evenodd" clip-rule="evenodd" d="M3.4111 5.16519C3.68662 5.14682 3.92488 5.35529 3.94325 5.63082L4.24988 10.2302C4.30978 11.1288 4.35246 11.754 4.44618 12.2244C4.53708 12.6807 4.66396 12.9223 4.84624 13.0928C5.02852 13.2633 5.27796 13.3739 5.73929 13.4342C6.21489 13.4964 6.84158 13.4974 7.74211 13.4974H8.25771C9.15824 13.4974 9.78491 13.4964 10.2605 13.4342C10.7218 13.3739 10.9713 13.2633 11.1536 13.0928C11.3358 12.9223 11.4628 12.6807 11.5536 12.2244C11.6474 11.754 11.69 11.1288 11.75 10.2302L12.0566 5.63082C12.0749 5.35529 12.3132 5.14682 12.5887 5.16519C12.8642 5.18356 13.0727 5.42181 13.0544 5.69734L12.7454 10.3318C12.6884 11.187 12.6424 11.8777 12.5344 12.4198C12.4221 12.9833 12.2312 13.4541 11.8368 13.823C11.4424 14.192 10.96 14.3512 10.3902 14.4257C9.84218 14.4974 9.14991 14.4974 8.29284 14.4974H7.70698C6.84991 14.4974 6.15761 14.4974 5.60958 14.4257C5.03982 14.3512 4.55745 14.192 4.16306 13.823C3.76866 13.4541 3.57771 12.9833 3.46545 12.4198C3.35746 11.8777 3.31142 11.187 3.25443 10.3318L2.94546 5.69734C2.92709 5.42181 3.13556 5.18356 3.4111 5.16519Z" fill="#FF3535"/>
</svg>
