<svg width="22" height="18" viewBox="0 0 22 18" fill="none" xmlns="http://www.w3.org/2000/svg">
<path d="M11.0054 6.93205V13.6821M11.0054 13.6821L8.00538 10.6821M11.0054 13.6821L14.0054 10.6821M5.75538 16.6821C4.68481 16.6832 3.6489 16.3027 2.83368 15.6087C2.01846 14.9148 1.47733 13.953 1.30749 12.896C1.13765 11.839 1.35021 10.756 1.907 9.84164C2.46379 8.92726 3.32834 8.24134 4.34538 7.90705C4.08408 6.56822 4.35414 5.18025 5.09837 4.03707C5.84259 2.89388 7.00255 2.08525 8.3326 1.7824C9.66265 1.47956 11.0583 1.70628 12.2241 2.41457C13.3899 3.12285 14.2343 4.25707 14.5784 5.57705C15.1104 5.40403 15.6802 5.38321 16.2234 5.51695C16.7666 5.65069 17.2616 5.93366 17.6525 6.33389C18.0434 6.73413 18.3145 7.23568 18.4354 7.78191C18.5562 8.32814 18.5219 8.89728 18.3364 9.42505C19.155 9.73775 19.8384 10.3272 20.2679 11.091C20.6975 11.8548 20.8461 12.745 20.688 13.6069C20.5299 14.4689 20.0751 15.2483 19.4024 15.81C18.7298 16.3717 17.8817 16.6802 17.0054 16.6821H5.75538Z" stroke="#4F46BB" stroke-width="1.5" stroke-linecap="round" stroke-linejoin="round"/>
</svg>
