<svg width="18" height="19" viewBox="0 0 18 19" fill="none" xmlns="http://www.w3.org/2000/svg">
<g clip-path="url(#clip0_909_1259)">
<path d="M14.2502 15.6452H3.75022C3.55131 15.6452 3.36054 15.7242 3.21989 15.8648C3.07924 16.0055 3.00022 16.1962 3.00022 16.3952C3.00022 16.5941 3.07924 16.7848 3.21989 16.9255C3.36054 17.0661 3.55131 17.1452 3.75022 17.1452H14.2502C14.4491 17.1452 14.6399 17.0661 14.7806 16.9255C14.9212 16.7848 15.0002 16.5941 15.0002 16.3952C15.0002 16.1962 14.9212 16.0055 14.7806 15.8648C14.6399 15.7242 14.4491 15.6452 14.2502 15.6452ZM3.75022 14.1452H3.81772L6.94522 13.8602C7.28782 13.826 7.60825 13.6751 7.85272 13.4327L14.6027 6.68266C14.8647 6.40588 15.0063 6.03654 14.9965 5.65556C14.9866 5.27458 14.8262 4.91304 14.5502 4.65016L12.4952 2.59516C12.227 2.34323 11.8756 2.19868 11.5077 2.189C11.1399 2.17932 10.7813 2.30518 10.5002 2.54266L3.75022 9.29266C3.5078 9.53713 3.35685 9.85756 3.32272 10.2002L3.00022 13.3277C2.99012 13.4375 3.00437 13.5482 3.04197 13.6519C3.07956 13.7557 3.13957 13.8498 3.21772 13.9277C3.2878 13.9972 3.37091 14.0522 3.46229 14.0895C3.55367 14.1268 3.65152 14.1457 3.75022 14.1452ZM11.4527 3.64516L13.5002 5.69266L12.0002 7.15516L9.99022 5.14516L11.4527 3.64516ZM4.77772 10.3277L9.00022 6.13516L11.0252 8.16016L6.82522 12.3602L4.57522 12.5702L4.77772 10.3277Z" fill="#4F46BB"/>
</g>
<defs>
<clipPath id="clip0_909_1259">
<rect width="18" height="18" fill="white" transform="translate(0 0.64502)"/>
</clipPath>
</defs>
</svg>
