<svg width="17" height="18" viewBox="0 0 17 18" fill="none" xmlns="http://www.w3.org/2000/svg">
<path d="M12.0895 3.28977L13.439 1.93939C13.7204 1.65805 14.1019 1.5 14.4998 1.5C14.8977 1.5 15.2793 1.65805 15.5606 1.93939C15.8419 2.22073 16 2.60231 16 3.00018C16 3.39805 15.8419 3.77963 15.5606 4.06096L7.06552 12.5561C6.64258 12.9787 6.12103 13.2894 5.54794 13.46L3.39997 14.1L4.03996 11.9521C4.21058 11.379 4.52126 10.8574 4.94395 10.4345L12.0895 3.28977ZM12.0895 3.28977L14.1998 5.40015M12.9998 10.9001V14.7C12.9998 15.1774 12.8102 15.6352 12.4726 15.9728C12.1351 16.3104 11.6772 16.5 11.1999 16.5H2.79998C2.32259 16.5 1.86476 16.3104 1.5272 15.9728C1.18964 15.6352 1 15.1774 1 14.7V6.30013C1 5.82275 1.18964 5.36492 1.5272 5.02736C1.86476 4.6898 2.32259 4.50016 2.79998 4.50016H6.59993" stroke="#515563" stroke-width="1.5" stroke-linecap="round" stroke-linejoin="round"/>
</svg>
