<svg width="24" height="24" viewBox="0 0 24 24" fill="none" xmlns="http://www.w3.org/2000/svg">
<path d="M4.76758 3.79811C4.24598 3.80072 3.74649 4.00908 3.37766 4.37791C3.00883 4.74674 2.80046 5.24623 2.79785 5.76783V19.8887C2.79785 20.9717 3.68709 21.8584 4.76758 21.8584H17.2541C17.7763 21.8565 18.2767 21.6485 18.6465 21.2797C19.0162 20.9108 19.2255 20.411 19.2288 19.8887V10.9467C19.2288 10.7722 19.1594 10.6047 19.036 10.4813C18.9125 10.3579 18.7451 10.2885 18.5705 10.2885C18.396 10.2885 18.2285 10.3579 18.1051 10.4813C17.9816 10.6047 17.9123 10.7722 17.9123 10.9467V19.8887C17.914 19.9755 17.8981 20.0617 17.8656 20.1422C17.8331 20.2227 17.7846 20.2958 17.7231 20.3571C17.6616 20.4183 17.5884 20.4665 17.5078 20.4987C17.4271 20.5309 17.3408 20.5465 17.2541 20.5445H4.76758C4.68081 20.5469 4.59447 20.5315 4.51382 20.4994C4.43318 20.4673 4.35993 20.4191 4.29855 20.3577C4.23718 20.2964 4.18897 20.2231 4.15686 20.1425C4.12476 20.0618 4.10944 19.9755 4.11183 19.8887V5.76783C4.11183 5.39277 4.39251 5.11209 4.76758 5.11209H7.21172C7.38629 5.11209 7.55372 5.04273 7.67716 4.91929C7.8006 4.79585 7.86994 4.62843 7.86994 4.45386C7.86994 4.27928 7.8006 4.11186 7.67716 3.98842C7.55372 3.86498 7.38629 3.79563 7.21172 3.79563L4.76758 3.79811ZM14.8919 3.79811C14.7173 3.79811 14.5499 3.86746 14.4265 3.9909C14.303 4.11434 14.2337 4.28177 14.2337 4.45634C14.2337 4.63091 14.303 4.79834 14.4265 4.92178C14.5499 5.04522 14.7173 5.11457 14.8919 5.11457H17.2541C17.6291 5.11457 17.9148 5.39277 17.9148 5.76783V6.08826C17.9148 6.44842 19.2288 6.4509 19.2288 6.08826V5.76535C19.2248 5.24353 19.0153 4.7443 18.6456 4.376C18.2759 4.00771 17.7759 3.80006 17.2541 3.79811H14.8919Z" fill="white"/>
<path d="M8.59027 2.14136C8.06713 2.14462 7.56638 2.35406 7.19669 2.72421C6.827 3.09437 6.61819 3.59539 6.61559 4.11853V4.77179C6.61559 5.85477 7.50978 6.74151 8.59027 6.74151H13.4363C13.9579 6.7389 14.4574 6.53054 14.8263 6.16171C15.1951 5.79288 15.4034 5.29339 15.4061 4.77179V4.11853C15.4041 3.59627 15.1961 3.09589 14.8273 2.72613C14.4584 2.35637 13.9586 2.14711 13.4363 2.14384H8.59027V2.14136ZM8.59027 3.45782H13.4363C13.8114 3.45782 14.0921 3.74347 14.0921 4.11853V4.77179C14.0945 4.85856 14.0792 4.94491 14.0471 5.02555C14.0149 5.10619 13.9667 5.17943 13.9053 5.24081C13.844 5.30218 13.7707 5.3504 13.6901 5.38251C13.6094 5.41462 13.5231 5.42993 13.4363 5.42754H8.59027C8.50328 5.42991 8.41672 5.4146 8.33581 5.38255C8.25491 5.3505 8.18135 5.30237 8.11958 5.24106C8.05781 5.17976 8.00913 5.10657 7.97646 5.02591C7.9438 4.94525 7.92785 4.8588 7.92956 4.77179V4.11853C7.92752 4.03121 7.94322 3.94438 7.9757 3.86329C8.00818 3.78221 8.05677 3.70856 8.11854 3.6468C8.1803 3.58503 8.25395 3.53644 8.33504 3.50396C8.41612 3.47148 8.50295 3.45578 8.59027 3.45782ZM7.60169 8.08033C7.42712 8.08033 7.25969 8.14968 7.13625 8.27312C7.0128 8.39656 6.94346 8.56398 6.94346 8.73856C6.94346 8.91313 7.0128 9.08056 7.13625 9.204C7.25969 9.32744 7.42712 9.39678 7.60169 9.39678H8.30463C8.4792 9.39678 8.64662 9.32744 8.77007 9.204C8.89351 9.08056 8.96286 8.91313 8.96286 8.73856C8.96286 8.56398 8.89351 8.39656 8.77007 8.27312C8.64662 8.14968 8.4792 8.08033 8.30463 8.08033H7.60169ZM6.61559 17.5241C6.44102 17.5241 6.27359 17.5934 6.15014 17.7168C6.0267 17.8403 5.95736 18.0077 5.95736 18.1823C5.95736 18.3569 6.0267 18.5243 6.15014 18.6477C6.27359 18.7712 6.44102 18.8405 6.61559 18.8405H10.9202C11.0947 18.8405 11.2622 18.7712 11.3856 18.6477C11.509 18.5243 11.5784 18.3569 11.5784 18.1823C11.5784 18.0077 11.509 17.8403 11.3856 17.7168C11.2622 17.5934 11.0947 17.5241 10.9202 17.5241H6.61559Z" fill="white"/>
<path d="M19.7851 5.69083C19.37 5.37449 18.8469 5.23463 18.3294 5.30159C17.8118 5.36856 17.3415 5.63694 17.0206 6.04851L10.2197 14.8688C9.66083 15.5941 9.68566 16.4833 9.76763 17.1639C9.85208 17.8445 10.0409 18.381 10.0409 18.381C10.0819 18.5009 10.1567 18.6064 10.2563 18.6849C10.3559 18.7633 10.476 18.8113 10.6022 18.8231C10.6022 18.8231 11.1785 18.8728 11.864 18.7884C12.5521 18.7039 13.4239 18.5126 13.9902 17.7799L20.7961 8.96211C21.1129 8.54654 21.2528 8.02267 21.1854 7.50447C21.1179 6.98627 20.8486 6.51567 20.4359 6.19506L19.7851 5.69083ZM18.9853 6.73406L19.6361 7.23332C19.9342 7.46184 19.9839 7.85678 19.7529 8.15484L12.952 16.9801C12.7682 17.2161 12.2366 17.4172 11.7051 17.4843C11.4244 17.5191 11.3673 17.5017 11.1834 17.4992C11.1387 17.3253 11.1089 17.2806 11.0742 17.0024C11.0096 16.4783 11.0717 15.917 11.258 15.676L18.0638 6.85081C18.1153 6.78082 18.1805 6.72202 18.2554 6.678C18.3303 6.63398 18.4133 6.60565 18.4995 6.59473C18.5857 6.58381 18.6732 6.59053 18.7567 6.61448C18.8403 6.63844 18.918 6.67912 18.9853 6.73406ZM7.60169 10.7927C7.42712 10.7927 7.25969 10.8621 7.13625 10.9855C7.0128 11.109 6.94346 11.2764 6.94346 11.451C6.94346 11.6255 7.0128 11.793 7.13625 11.9164C7.25969 12.0398 7.42712 12.1092 7.60169 12.1092H8.30463C8.4792 12.1092 8.64662 12.0398 8.77007 11.9164C8.89351 11.793 8.96286 11.6255 8.96286 11.451C8.96286 11.2764 8.89351 11.109 8.77007 10.9855C8.64662 10.8621 8.4792 10.7927 8.30463 10.7927H7.60169ZM7.60169 13.5449C7.42712 13.5449 7.25969 13.6142 7.13625 13.7377C7.0128 13.8611 6.94346 14.0285 6.94346 14.2031C6.94346 14.3777 7.0128 14.5451 7.13625 14.6685C7.25969 14.792 7.42712 14.8613 7.60169 14.8613H8.30463C8.4792 14.8613 8.64662 14.792 8.77007 14.6685C8.89351 14.5451 8.96286 14.3777 8.96286 14.2031C8.96286 14.0285 8.89351 13.8611 8.77007 13.7377C8.64662 13.6142 8.4792 13.5449 8.30463 13.5449H7.60169Z" fill="white"/>
</svg>
