<svg width="222" height="143" viewBox="0 0 222 143" fill="none" xmlns="http://www.w3.org/2000/svg">
<path d="M5.22773 136.542C4.73865 136.542 4.25501 136.498 3.7768 136.411C3.30946 136.335 2.87473 136.216 2.4726 136.053C2.07047 135.879 1.72812 135.667 1.44555 135.417L1.93462 134.162C2.23893 134.422 2.57042 134.629 2.92907 134.781C3.2986 134.922 3.67899 135.026 4.07025 135.091C4.46151 135.145 4.84733 135.172 5.22773 135.172C5.86896 135.172 6.3852 135.026 6.77646 134.732C7.16772 134.428 7.36335 133.95 7.36335 133.298C7.36335 132.961 7.30358 132.683 7.18403 132.466C7.06447 132.238 6.87428 132.053 6.61344 131.912C6.36347 131.771 6.04828 131.646 5.66789 131.537L4.07025 131.129C3.20078 130.89 2.57585 130.51 2.19546 129.988C1.82594 129.456 1.64117 128.809 1.64117 128.048C1.64117 127.363 1.79877 126.777 2.11395 126.287C2.44 125.798 2.89103 125.423 3.46706 125.163C4.04308 124.891 4.71148 124.755 5.47226 124.755C5.907 124.755 6.31999 124.804 6.71125 124.902C7.11338 124.989 7.47747 125.119 7.80352 125.293C8.12957 125.467 8.41758 125.684 8.66755 125.945L8.17848 127.184C7.81982 126.804 7.41226 126.532 6.95579 126.369C6.49932 126.206 6.03198 126.124 5.55377 126.124C5.09731 126.124 4.68431 126.195 4.31479 126.336C3.95613 126.467 3.67355 126.668 3.46706 126.94C3.26056 127.211 3.15731 127.564 3.15731 127.999C3.15731 128.456 3.27686 128.831 3.51596 129.124C3.75507 129.418 4.13546 129.64 4.65714 129.793L6.23848 130.184C7.15142 130.401 7.81982 130.771 8.24369 131.292C8.67842 131.803 8.89579 132.444 8.89579 133.216C8.89579 133.879 8.7382 134.466 8.42302 134.977C8.1187 135.477 7.69484 135.862 7.15142 136.134C6.608 136.406 5.96677 136.542 5.22773 136.542ZM13.3522 136.542C12.874 136.542 12.4393 136.428 12.048 136.199C11.6676 135.971 11.3633 135.667 11.1351 135.286C10.9177 134.906 10.809 134.498 10.809 134.064C10.809 133.488 10.9666 133.02 11.2818 132.662C11.597 132.292 12.0535 132.026 12.6512 131.863C13.249 131.689 13.9663 131.602 14.8032 131.602H15.9606V132.678H15.0151C14.5477 132.678 14.1402 132.7 13.7924 132.743C13.4555 132.787 13.1783 132.857 12.961 132.955C12.7436 133.053 12.5806 133.194 12.4719 133.379C12.3632 133.553 12.3089 133.776 12.3089 134.047C12.3089 134.471 12.4502 134.792 12.7327 135.009C13.0262 135.227 13.3685 135.335 13.7598 135.335C14.075 135.335 14.3847 135.243 14.689 135.058C15.0042 134.863 15.2596 134.602 15.4553 134.276C15.6509 133.939 15.7487 133.569 15.7487 133.167V130.868C15.7487 130.336 15.5965 129.956 15.2922 129.727C14.9879 129.499 14.5423 129.385 13.9554 129.385C13.5859 129.385 13.2001 129.439 12.7979 129.548C12.3958 129.657 11.9828 129.852 11.559 130.135L11.0699 129.01C11.4068 128.803 11.7437 128.64 12.0806 128.521C12.4284 128.401 12.7816 128.309 13.1403 128.244C13.5098 128.179 13.8793 128.146 14.2489 128.146C14.8358 128.146 15.352 128.249 15.7976 128.456C16.2541 128.651 16.6073 128.961 16.8573 129.385C17.1072 129.798 17.2322 130.336 17.2322 130.999V136.395H15.9606V134.716H15.8628C15.6998 135.042 15.4987 135.346 15.2596 135.629C15.0314 135.911 14.7597 136.134 14.4445 136.297C14.1293 136.46 13.7652 136.542 13.3522 136.542ZM19.778 136.395V128.293H21.1148V130.053H21.2126C21.3647 129.521 21.631 129.091 22.0114 128.765C22.3918 128.429 22.8754 128.233 23.4623 128.179L24.2285 128.13L24.359 129.548L23.1526 129.629C22.5874 129.684 22.1364 129.917 21.7995 130.33C21.4626 130.743 21.2941 131.265 21.2941 131.896V136.395H19.778ZM28.2893 136.395L25.5504 128.293H27.1481L29.1044 134.911H29.0718L31.0118 128.293H32.5442L29.8217 136.395H28.2893ZM37.2997 136.525L37.1856 135.189L38.392 135.123C38.6746 135.102 38.9245 135.026 39.1419 134.895C39.3701 134.754 39.544 134.558 39.6636 134.308C39.7831 134.047 39.8429 133.738 39.8429 133.379V124.902H41.3753V133.509C41.3753 134.085 41.2612 134.591 41.033 135.026C40.8047 135.449 40.4841 135.786 40.0711 136.036C39.669 136.286 39.1854 136.422 38.6202 136.444L37.2997 136.525ZM46.4667 136.542C45.9885 136.542 45.5537 136.428 45.1625 136.199C44.7821 135.971 44.4778 135.667 44.2495 135.286C44.0322 134.906 43.9235 134.498 43.9235 134.064C43.9235 133.488 44.0811 133.02 44.3963 132.662C44.7114 132.292 45.1679 132.026 45.7657 131.863C46.3634 131.689 47.0807 131.602 47.9176 131.602H49.0751V132.678H48.1295C47.6622 132.678 47.2546 132.7 46.9068 132.743C46.5699 132.787 46.2928 132.857 46.0754 132.955C45.8581 133.053 45.695 133.194 45.5863 133.379C45.4777 133.553 45.4233 133.776 45.4233 134.047C45.4233 134.471 45.5646 134.792 45.8472 135.009C46.1406 135.227 46.483 135.335 46.8742 135.335C47.1894 135.335 47.4992 135.243 47.8035 135.058C48.1187 134.863 48.3741 134.602 48.5697 134.276C48.7653 133.939 48.8631 133.569 48.8631 133.167V130.868C48.8631 130.336 48.711 129.956 48.4067 129.727C48.1024 129.499 47.6568 129.385 47.0699 129.385C46.7003 129.385 46.3145 129.439 45.9124 129.548C45.5103 129.657 45.0973 129.852 44.6734 130.135L44.1843 129.01C44.5212 128.803 44.8582 128.64 45.1951 128.521C45.5429 128.401 45.8961 128.309 46.2547 128.244C46.6243 128.179 46.9938 128.146 47.3633 128.146C47.9502 128.146 48.4665 128.249 48.9121 128.456C49.3685 128.651 49.7217 128.961 49.9717 129.385C50.2217 129.798 50.3467 130.336 50.3467 130.999V136.395H49.0751V134.716H48.9773C48.8142 135.042 48.6132 135.346 48.3741 135.629C48.1458 135.911 47.8741 136.134 47.5589 136.297C47.2438 136.46 46.8797 136.542 46.4667 136.542ZM52.8924 136.395V128.293H54.2781V129.809H54.3596C54.5661 129.341 54.8813 128.95 55.3052 128.635C55.729 128.309 56.229 128.146 56.805 128.146C57.305 128.146 57.7343 128.244 58.0929 128.439C58.4624 128.635 58.745 128.95 58.9406 129.385C59.1471 129.809 59.2504 130.363 59.2504 131.048V136.395H57.7343V131.146C57.7343 130.754 57.6799 130.439 57.5712 130.2C57.4734 129.95 57.3213 129.765 57.1148 129.646C56.9083 129.515 56.6583 129.45 56.3648 129.45C56.0171 129.45 55.691 129.537 55.3867 129.711C55.0933 129.885 54.8541 130.124 54.6694 130.428C54.4955 130.722 54.4085 131.053 54.4085 131.423V136.395H52.8924ZM66.1435 136.395V124.902H67.6597V129.89H72.6319V124.902H74.1644V136.395H72.6319V131.227H67.6597V136.395H66.1435ZM76.8174 126.385V124.706H78.5943V126.385H76.8174ZM76.9641 136.395V128.293H78.4802V136.395H76.9641ZM84.0553 136.542C83.2076 136.542 82.5663 136.319 82.1316 135.873C81.6969 135.428 81.4795 134.743 81.4795 133.819V129.548H80.159V128.293H81.561V125.929H82.9956V128.293H85.4736V129.548H82.9956V133.721C82.9956 134.297 83.1097 134.694 83.338 134.911C83.5662 135.129 83.8814 135.238 84.2835 135.238C84.5009 135.238 84.7019 135.221 84.8867 135.189C85.0823 135.145 85.2671 135.08 85.441 134.993L85.6692 136.183C85.4519 136.314 85.2019 136.406 84.9193 136.46C84.6367 136.515 84.3487 136.542 84.0553 136.542ZM89.7065 136.542C89.2283 136.542 88.7936 136.428 88.4023 136.199C88.0219 135.971 87.7176 135.667 87.4894 135.286C87.272 134.906 87.1633 134.498 87.1633 134.064C87.1633 133.488 87.3209 133.02 87.6361 132.662C87.9513 132.292 88.4077 132.026 89.0055 131.863C89.6033 131.689 90.3206 131.602 91.1574 131.602H92.3149V132.678H91.3694C90.902 132.678 90.4945 132.7 90.1467 132.743C89.8098 132.787 89.5326 132.857 89.3153 132.955C89.0979 133.053 88.9349 133.194 88.8262 133.379C88.7175 133.553 88.6632 133.776 88.6632 134.047C88.6632 134.471 88.8044 134.792 89.087 135.009C89.3805 135.227 89.7228 135.335 90.1141 135.335C90.4293 135.335 90.739 135.243 91.0433 135.058C91.3585 134.863 91.6139 134.602 91.8095 134.276C92.0052 133.939 92.103 133.569 92.103 133.167V130.868C92.103 130.336 91.9508 129.956 91.6465 129.727C91.3422 129.499 90.8966 129.385 90.3097 129.385C89.9402 129.385 89.5544 129.439 89.1522 129.548C88.7501 129.657 88.3371 129.852 87.9132 130.135L87.4242 129.01C87.7611 128.803 88.098 128.64 88.4349 128.521C88.7827 128.401 89.1359 128.309 89.4946 128.244C89.8641 128.179 90.2336 128.146 90.6032 128.146C91.19 128.146 91.7063 128.249 92.1519 128.456C92.6084 128.651 92.9616 128.961 93.2116 129.385C93.4615 129.798 93.5865 130.336 93.5865 130.999V136.395H92.3149V134.716H92.2171C92.0541 135.042 91.853 135.346 91.6139 135.629C91.3857 135.911 91.114 136.134 90.7988 136.297C90.4836 136.46 90.1195 136.542 89.7065 136.542ZM96.8348 139.329L98.2205 135.759V137.259L95.1067 128.293H96.7044L98.6118 134.781H98.6933L100.568 128.293H102.1L98.4161 139.329H96.8348ZM103.741 138.889L102.991 138.286C103.154 138.123 103.285 137.922 103.383 137.683C103.491 137.455 103.578 137.205 103.643 136.933C103.709 136.661 103.747 136.39 103.757 136.118L104.051 136.395H102.845V134.585H104.736V135.987C104.736 136.335 104.698 136.688 104.622 137.047C104.556 137.417 104.448 137.754 104.295 138.058C104.154 138.373 103.969 138.65 103.741 138.889ZM114.601 136.542C114.112 136.542 113.628 136.498 113.15 136.411C112.683 136.335 112.248 136.216 111.846 136.053C111.444 135.879 111.101 135.667 110.819 135.417L111.308 134.162C111.612 134.422 111.944 134.629 112.302 134.781C112.672 134.922 113.052 135.026 113.443 135.091C113.835 135.145 114.221 135.172 114.601 135.172C115.242 135.172 115.758 135.026 116.15 134.732C116.541 134.428 116.737 133.95 116.737 133.298C116.737 132.961 116.677 132.683 116.557 132.466C116.438 132.238 116.247 132.053 115.987 131.912C115.737 131.771 115.421 131.646 115.041 131.537L113.443 131.129C112.574 130.89 111.949 130.51 111.569 129.988C111.199 129.456 111.014 128.809 111.014 128.048C111.014 127.363 111.172 126.777 111.487 126.287C111.813 125.798 112.264 125.423 112.84 125.163C113.416 124.891 114.085 124.755 114.845 124.755C115.28 124.755 115.693 124.804 116.084 124.902C116.487 124.989 116.851 125.119 117.177 125.293C117.503 125.467 117.791 125.684 118.041 125.945L117.552 127.184C117.193 126.804 116.785 126.532 116.329 126.369C115.873 126.206 115.405 126.124 114.927 126.124C114.471 126.124 114.058 126.195 113.688 126.336C113.329 126.467 113.047 126.668 112.84 126.94C112.634 127.211 112.531 127.564 112.531 127.999C112.531 128.456 112.65 128.831 112.889 129.124C113.128 129.418 113.509 129.64 114.03 129.793L115.612 130.184C116.525 130.401 117.193 130.771 117.617 131.292C118.052 131.803 118.269 132.444 118.269 133.216C118.269 133.879 118.111 134.466 117.796 134.977C117.492 135.477 117.068 135.862 116.525 136.134C115.981 136.406 115.34 136.542 114.601 136.542ZM122.725 136.542C122.247 136.542 121.813 136.428 121.421 136.199C121.041 135.971 120.737 135.667 120.508 135.286C120.291 134.906 120.182 134.498 120.182 134.064C120.182 133.488 120.34 133.02 120.655 132.662C120.97 132.292 121.427 132.026 122.024 131.863C122.622 131.689 123.34 131.602 124.176 131.602H125.334V132.678H124.388C123.921 132.678 123.513 132.7 123.166 132.743C122.829 132.787 122.552 132.857 122.334 132.955C122.117 133.053 121.954 133.194 121.845 133.379C121.736 133.553 121.682 133.776 121.682 134.047C121.682 134.471 121.823 134.792 122.106 135.009C122.399 135.227 122.742 135.335 123.133 135.335C123.448 135.335 123.758 135.243 124.062 135.058C124.377 134.863 124.633 134.602 124.828 134.276C125.024 133.939 125.122 133.569 125.122 133.167V130.868C125.122 130.336 124.97 129.956 124.665 129.727C124.361 129.499 123.916 129.385 123.329 129.385C122.959 129.385 122.573 129.439 122.171 129.548C121.769 129.657 121.356 129.852 120.932 130.135L120.443 129.01C120.78 128.803 121.117 128.64 121.454 128.521C121.802 128.401 122.155 128.309 122.514 128.244C122.883 128.179 123.253 128.146 123.622 128.146C124.209 128.146 124.725 128.249 125.171 128.456C125.627 128.651 125.981 128.961 126.23 129.385C126.48 129.798 126.605 130.336 126.605 130.999V136.395H125.334V134.716H125.236C125.073 135.042 124.872 135.346 124.633 135.629C124.405 135.911 124.133 136.134 123.818 136.297C123.503 136.46 123.138 136.542 122.725 136.542ZM129.151 136.395V128.293H130.488V130.053H130.586C130.738 129.521 131.004 129.091 131.385 128.765C131.765 128.429 132.249 128.233 132.836 128.179L133.602 128.13L133.732 129.548L132.526 129.629C131.961 129.684 131.51 129.917 131.173 130.33C130.836 130.743 130.667 131.265 130.667 131.896V136.395H129.151ZM137.662 136.395L134.924 128.293H136.521L138.478 134.911H138.445L140.385 128.293H141.917L139.195 136.395H137.662ZM147.358 126.385V124.706H149.118V126.385H147.358ZM145.793 139.541L145.662 138.27L146.331 138.188C146.678 138.134 146.956 138.025 147.162 137.862C147.379 137.699 147.488 137.33 147.488 136.754V128.293H149.004V136.737C149.004 137.15 148.961 137.514 148.874 137.83C148.798 138.156 148.667 138.427 148.483 138.645C148.298 138.862 148.042 139.036 147.716 139.166C147.401 139.297 147.004 139.395 146.526 139.46L145.793 139.541ZM153.691 136.542C153.212 136.542 152.778 136.428 152.386 136.199C152.006 135.971 151.702 135.667 151.474 135.286C151.256 134.906 151.147 134.498 151.147 134.064C151.147 133.488 151.305 133.02 151.62 132.662C151.935 132.292 152.392 132.026 152.99 131.863C153.587 131.689 154.305 131.602 155.142 131.602H156.299V132.678H155.354C154.886 132.678 154.479 132.7 154.131 132.743C153.794 132.787 153.517 132.857 153.299 132.955C153.082 133.053 152.919 133.194 152.81 133.379C152.702 133.553 152.647 133.776 152.647 134.047C152.647 134.471 152.789 134.792 153.071 135.009C153.365 135.227 153.707 135.335 154.098 135.335C154.413 135.335 154.723 135.243 155.027 135.058C155.343 134.863 155.598 134.602 155.794 134.276C155.989 133.939 156.087 133.569 156.087 133.167V130.868C156.087 130.336 155.935 129.956 155.631 129.727C155.326 129.499 154.881 129.385 154.294 129.385C153.924 129.385 153.538 129.439 153.136 129.548C152.734 129.657 152.321 129.852 151.897 130.135L151.408 129.01C151.745 128.803 152.082 128.64 152.419 128.521C152.767 128.401 153.12 128.309 153.479 128.244C153.848 128.179 154.218 128.146 154.587 128.146C155.174 128.146 155.69 128.249 156.136 128.456C156.592 128.651 156.946 128.961 157.196 129.385C157.446 129.798 157.571 130.336 157.571 130.999V136.395H156.299V134.716H156.201C156.038 135.042 155.837 135.346 155.598 135.629C155.37 135.911 155.098 136.134 154.783 136.297C154.468 136.46 154.104 136.542 153.691 136.542ZM160.116 136.395V128.293H161.502V129.809H161.584C161.79 129.341 162.105 128.95 162.529 128.635C162.953 128.309 163.453 128.146 164.029 128.146C164.529 128.146 164.958 128.244 165.317 128.439C165.686 128.635 165.969 128.95 166.165 129.385C166.371 129.809 166.474 130.363 166.474 131.048V136.395H164.958V131.146C164.958 130.754 164.904 130.439 164.795 130.2C164.697 129.95 164.545 129.765 164.339 129.646C164.132 129.515 163.882 129.45 163.589 129.45C163.241 129.45 162.915 129.537 162.611 129.711C162.317 129.885 162.078 130.124 161.893 130.428C161.719 130.722 161.633 131.053 161.633 131.423V136.395H160.116ZM175.797 136.542C175.405 136.542 175.014 136.504 174.623 136.428C174.242 136.362 173.889 136.265 173.563 136.134C173.248 136.004 172.976 135.846 172.748 135.661L173.221 134.585C173.482 134.77 173.748 134.917 174.02 135.026C174.302 135.134 174.585 135.21 174.867 135.254C175.15 135.297 175.422 135.319 175.682 135.319C176.193 135.319 176.606 135.227 176.921 135.042C177.247 134.857 177.411 134.58 177.411 134.21C177.411 133.874 177.318 133.613 177.133 133.428C176.949 133.243 176.655 133.118 176.253 133.053L174.998 132.857C174.324 132.749 173.808 132.493 173.449 132.091C173.101 131.678 172.927 131.178 172.927 130.591C172.927 130.102 173.041 129.678 173.27 129.32C173.498 128.961 173.835 128.679 174.28 128.472C174.726 128.255 175.269 128.146 175.911 128.146C176.237 128.146 176.568 128.179 176.905 128.244C177.253 128.309 177.574 128.412 177.867 128.554C178.171 128.684 178.421 128.842 178.617 129.026L178.128 130.07C177.921 129.896 177.693 129.76 177.443 129.662C177.193 129.564 176.938 129.494 176.677 129.45C176.416 129.396 176.161 129.369 175.911 129.369C175.443 129.369 175.052 129.466 174.737 129.662C174.433 129.847 174.28 130.14 174.28 130.542C174.28 130.858 174.367 131.102 174.541 131.276C174.715 131.45 174.998 131.569 175.389 131.635L176.579 131.847C177.329 131.977 177.878 132.249 178.226 132.662C178.584 133.064 178.764 133.58 178.764 134.21C178.764 134.667 178.644 135.075 178.405 135.433C178.166 135.781 177.824 136.053 177.378 136.248C176.932 136.444 176.405 136.542 175.797 136.542ZM183.241 136.542C182.763 136.542 182.344 136.449 181.986 136.265C181.627 136.069 181.344 135.759 181.138 135.335C180.942 134.901 180.844 134.352 180.844 133.689V128.293H182.36V133.509C182.36 133.901 182.409 134.227 182.507 134.488C182.616 134.738 182.773 134.928 182.98 135.058C183.186 135.178 183.436 135.238 183.73 135.238C184.067 135.238 184.382 135.151 184.675 134.977C184.969 134.792 185.203 134.558 185.376 134.276C185.55 133.982 185.637 133.656 185.637 133.298V128.293H187.153V136.395H185.784V134.895H185.654C185.425 135.363 185.116 135.754 184.724 136.069C184.344 136.384 183.849 136.542 183.241 136.542ZM189.728 136.395V124.902H191.244V131.912H191.326L194.065 128.293H195.842L192.5 132.531L192.565 131.912L196.135 136.395H194.26L191.326 132.662H191.244V136.395H189.728ZM197.434 136.395V124.902H198.885V129.76H198.999C199.184 129.325 199.477 128.95 199.879 128.635C200.281 128.309 200.77 128.146 201.346 128.146C201.846 128.146 202.276 128.244 202.634 128.439C203.004 128.635 203.286 128.945 203.482 129.369C203.689 129.793 203.792 130.352 203.792 131.048V136.395H202.276V131.146C202.276 130.754 202.221 130.439 202.113 130.2C202.004 129.95 201.846 129.765 201.64 129.646C201.444 129.515 201.2 129.45 200.906 129.45C200.558 129.45 200.238 129.537 199.944 129.711C199.651 129.885 199.412 130.124 199.227 130.428C199.042 130.722 198.95 131.053 198.95 131.423V136.395H197.434ZM208.648 136.542C208.17 136.542 207.735 136.428 207.344 136.199C206.963 135.971 206.659 135.667 206.431 135.286C206.213 134.906 206.105 134.498 206.105 134.064C206.105 133.488 206.262 133.02 206.577 132.662C206.893 132.292 207.349 132.026 207.947 131.863C208.545 131.689 209.262 131.602 210.099 131.602H211.256V132.678H210.311C209.843 132.678 209.436 132.7 209.088 132.743C208.751 132.787 208.474 132.857 208.257 132.955C208.039 133.053 207.876 133.194 207.768 133.379C207.659 133.553 207.605 133.776 207.605 134.047C207.605 134.471 207.746 134.792 208.028 135.009C208.322 135.227 208.664 135.335 209.055 135.335C209.371 135.335 209.68 135.243 209.985 135.058C210.3 134.863 210.555 134.602 210.751 134.276C210.947 133.939 211.044 133.569 211.044 133.167V130.868C211.044 130.336 210.892 129.956 210.588 129.727C210.284 129.499 209.838 129.385 209.251 129.385C208.882 129.385 208.496 129.439 208.094 129.548C207.691 129.657 207.278 129.852 206.855 130.135L206.366 129.01C206.702 128.803 207.039 128.64 207.376 128.521C207.724 128.401 208.077 128.309 208.436 128.244C208.805 128.179 209.175 128.146 209.545 128.146C210.131 128.146 210.648 128.249 211.093 128.456C211.55 128.651 211.903 128.961 212.153 129.385C212.403 129.798 212.528 130.336 212.528 130.999V136.395H211.256V134.716H211.158C210.995 135.042 210.794 135.346 210.555 135.629C210.327 135.911 210.055 136.134 209.74 136.297C209.425 136.46 209.061 136.542 208.648 136.542ZM215.776 139.329L217.162 135.759V137.259L214.048 128.293H215.646L217.553 134.781H217.635L219.509 128.293H221.042L217.358 139.329H215.776Z" fill="#4F46BB"/>
<path d="M27.466 113.465C25.2487 113.465 23.3517 112.972 21.775 111.987C20.1982 111.001 18.991 109.523 18.1534 107.552C17.3157 105.581 16.8969 103.105 16.8969 100.124C16.8969 97.1924 17.2911 94.7287 18.0795 92.7332C18.8925 90.7376 20.075 89.2471 21.6271 88.2616C23.2039 87.2515 25.1009 86.7465 27.3182 86.7465C28.4022 86.7465 29.4247 86.8573 30.3855 87.079C31.3463 87.2761 32.2332 87.5841 33.0462 88.0029C33.8839 88.3971 34.586 88.9145 35.1527 89.555L34.044 92.1419C33.1325 91.3289 32.1224 90.7376 31.0137 90.368C29.9297 89.9985 28.7595 89.8137 27.503 89.8137C25.1625 89.8137 23.3887 90.6267 22.1815 92.2527C20.9989 93.8541 20.4076 96.4656 20.4076 100.087C20.4076 103.783 21.0112 106.443 22.2184 108.069C23.4256 109.671 25.2611 110.472 27.7247 110.472C28.8334 110.472 29.8681 110.385 30.8289 110.213C31.8144 110.04 32.726 109.782 33.5636 109.437L32.3441 110.915V102.12H27.4291V99.1633H35.4853V111.802C34.8694 112.147 34.1179 112.442 33.231 112.689C32.3687 112.935 31.4325 113.12 30.4224 113.243C29.437 113.391 28.4515 113.465 27.466 113.465ZM41.5534 113.132V94.7657H44.5837V98.7568H44.8054C45.1504 97.5496 45.754 96.5765 46.6162 95.8374C47.4785 95.0736 48.5749 94.6302 49.9052 94.507L51.6421 94.3961L51.9378 97.6112L49.2031 97.796C47.922 97.9192 46.8996 98.4489 46.1358 99.3851C45.3721 100.321 44.9902 101.504 44.9902 102.933V113.132H41.5534ZM60.9831 113.465C59.8991 113.465 58.9136 113.206 58.0267 112.689C57.1644 112.171 56.4746 111.482 55.9572 110.619C55.4645 109.757 55.2181 108.833 55.2181 107.848C55.2181 106.542 55.5753 105.483 56.2898 104.67C57.0042 103.832 58.039 103.228 59.394 102.859C60.749 102.465 62.375 102.268 64.2721 102.268H66.8959V104.707H64.7525C63.6931 104.707 62.7692 104.756 61.9809 104.854C61.2171 104.953 60.5889 105.113 60.0962 105.335C59.6034 105.557 59.2339 105.877 58.9875 106.296C58.7411 106.69 58.618 107.195 58.618 107.811C58.618 108.772 58.9382 109.498 59.5788 109.991C60.244 110.484 61.02 110.73 61.9069 110.73C62.6214 110.73 63.3236 110.521 64.0134 110.102C64.7278 109.659 65.3068 109.067 65.7503 108.328C66.1937 107.564 66.4155 106.727 66.4155 105.815V100.605C66.4155 99.3974 66.0705 98.5351 65.3807 98.0177C64.6909 97.5004 63.6808 97.2417 62.3504 97.2417C61.5128 97.2417 60.6382 97.3649 59.7266 97.6112C58.815 97.8576 57.8789 98.301 56.918 98.9416L55.8094 96.3917C56.5731 95.9236 57.3368 95.5541 58.1006 95.2831C58.889 95.0121 59.6896 94.8026 60.5027 94.6548C61.3403 94.507 62.1779 94.4331 63.0156 94.4331C64.346 94.4331 65.5162 94.6671 66.5263 95.1352C67.5611 95.5787 68.3618 96.2808 68.9284 97.2417C69.495 98.1779 69.7784 99.3974 69.7784 100.9V113.132H66.8959V109.326H66.6741C66.3046 110.065 65.8488 110.755 65.3068 111.395C64.7894 112.036 64.1735 112.541 63.4591 112.911C62.7446 113.28 61.9193 113.465 60.9831 113.465ZM75.623 113.132V94.7657H78.6903V98.2395H78.8751C79.1461 97.5989 79.5279 96.9953 80.0207 96.4287C80.538 95.8374 81.154 95.357 81.8684 94.9874C82.5829 94.6179 83.3836 94.4331 84.2705 94.4331C85.5023 94.4331 86.5617 94.7657 87.4486 95.4309C88.3355 96.0961 88.8899 96.9707 89.1116 98.0547H89.4442C89.8384 97.0939 90.4543 96.2562 91.2919 95.5417C92.1542 94.8026 93.2998 94.4331 94.7288 94.4331C95.7635 94.4331 96.6751 94.6548 97.4634 95.0983C98.2764 95.5417 98.9047 96.2439 99.3481 97.2047C99.7916 98.1655 100.013 99.4343 100.013 101.011V113.132H96.6135V101.307C96.6135 99.8532 96.3794 98.8431 95.9113 98.2764C95.4432 97.6851 94.7411 97.3895 93.8049 97.3895C92.9672 97.3895 92.2158 97.5866 91.5506 97.9808C90.9101 98.375 90.405 98.9046 90.0355 99.5698C89.6659 100.21 89.4812 100.962 89.4812 101.824V113.132H86.1552V101.307C86.1552 99.8778 85.8596 98.8677 85.2683 98.2764C84.7016 97.6851 84.0488 97.3895 83.3097 97.3895C82.4967 97.3895 81.7699 97.6112 81.1293 98.0547C80.4888 98.4981 79.9714 99.0525 79.5772 99.7177C79.2077 100.358 79.0229 101.023 79.0229 101.713V113.132H75.623ZM123.008 113.465C121.9 113.465 120.803 113.366 119.719 113.169C118.66 112.997 117.674 112.726 116.763 112.356C115.851 111.962 115.075 111.482 114.435 110.915L115.543 108.069C116.233 108.661 116.985 109.129 117.798 109.474C118.635 109.794 119.498 110.028 120.384 110.176C121.271 110.299 122.146 110.361 123.008 110.361C124.462 110.361 125.632 110.028 126.519 109.363C127.406 108.673 127.849 107.589 127.849 106.111C127.849 105.347 127.714 104.719 127.443 104.226C127.172 103.709 126.741 103.29 126.149 102.97C125.583 102.649 124.868 102.366 124.006 102.12L120.384 101.196C118.414 100.654 116.997 99.7916 116.135 98.609C115.297 97.4018 114.878 95.9359 114.878 94.2114C114.878 92.6593 115.235 91.3289 115.95 90.2202C116.689 89.1116 117.711 88.2616 119.017 87.6703C120.323 87.0544 121.838 86.7465 123.563 86.7465C124.548 86.7465 125.484 86.8573 126.371 87.079C127.283 87.2761 128.108 87.5718 128.847 87.966C129.586 88.3602 130.239 88.8529 130.806 89.4442L129.697 92.2527C128.884 91.3905 127.96 90.7745 126.926 90.405C125.891 90.0354 124.831 89.8507 123.747 89.8507C122.713 89.8507 121.776 90.0108 120.939 90.3311C120.126 90.6267 119.485 91.0825 119.017 91.6984C118.549 92.3143 118.315 93.115 118.315 94.1005C118.315 95.1352 118.586 95.9852 119.128 96.6504C119.67 97.3156 120.532 97.8206 121.715 98.1655L125.299 99.0525C127.369 99.5452 128.884 100.383 129.845 101.565C130.83 102.723 131.323 104.177 131.323 105.926C131.323 107.429 130.966 108.759 130.251 109.917C129.562 111.051 128.601 111.925 127.369 112.541C126.137 113.157 124.684 113.465 123.008 113.465ZM143.975 113.465C142.177 113.465 140.624 113.132 139.319 112.467C138.038 111.777 137.052 110.73 136.362 109.326C135.697 107.922 135.365 106.123 135.365 103.931C135.365 102.034 135.66 100.371 136.251 98.9416C136.843 97.5127 137.717 96.404 138.875 95.6157C140.033 94.8273 141.462 94.4331 143.162 94.4331C144.763 94.4331 146.094 94.7903 147.153 95.5048C148.237 96.1946 149.038 97.2294 149.555 98.609C150.073 99.9887 150.331 101.664 150.331 103.635V105.002H138.025V102.526H147.966L147.375 103.302C147.375 101.011 147.005 99.4097 146.266 98.4981C145.552 97.5619 144.505 97.0939 143.125 97.0939C142.312 97.0939 141.561 97.3156 140.871 97.759C140.206 98.1779 139.664 98.8554 139.245 99.7916C138.851 100.703 138.654 101.935 138.654 103.487V104.337C138.654 105.865 138.875 107.084 139.319 107.996C139.762 108.907 140.378 109.572 141.166 109.991C141.979 110.41 142.965 110.619 144.123 110.619C144.887 110.619 145.687 110.521 146.525 110.324C147.387 110.102 148.151 109.696 148.816 109.104L149.999 111.506C149.087 112.245 148.114 112.763 147.079 113.058C146.045 113.329 145.01 113.465 143.975 113.465ZM158.23 113.132L153.093 94.7657H156.493L160.004 109.474H160.115L164.143 94.7657H166.841L170.943 109.474H170.98L174.527 94.7657H177.89L172.753 113.132H169.686L165.732 98.7938H165.289L161.26 113.132H158.23ZM186.645 113.465C185.561 113.465 184.575 113.206 183.688 112.689C182.826 112.171 182.136 111.482 181.619 110.619C181.126 109.757 180.88 108.833 180.88 107.848C180.88 106.542 181.237 105.483 181.951 104.67C182.666 103.832 183.7 103.228 185.055 102.859C186.41 102.465 188.036 102.268 189.934 102.268H192.557V104.707H190.414C189.355 104.707 188.431 104.756 187.642 104.854C186.879 104.953 186.25 105.113 185.758 105.335C185.265 105.557 184.895 105.877 184.649 106.296C184.403 106.69 184.279 107.195 184.279 107.811C184.279 108.772 184.6 109.498 185.24 109.991C185.905 110.484 186.681 110.73 187.568 110.73C188.283 110.73 188.985 110.521 189.675 110.102C190.389 109.659 190.968 109.067 191.412 108.328C191.855 107.564 192.077 106.727 192.077 105.815V100.605C192.077 99.3974 191.732 98.5351 191.042 98.0177C190.352 97.5004 189.342 97.2417 188.012 97.2417C187.174 97.2417 186.3 97.3649 185.388 97.6112C184.476 97.8576 183.54 98.301 182.579 98.9416L181.471 96.3917C182.235 95.9236 182.998 95.5541 183.762 95.2831C184.55 95.0121 185.351 94.8026 186.164 94.6548C187.002 94.507 187.839 94.4331 188.677 94.4331C190.007 94.4331 191.178 94.6671 192.188 95.1352C193.223 95.5787 194.023 96.2808 194.59 97.2417C195.156 98.1779 195.44 99.3974 195.44 100.9V113.132H192.557V109.326H192.336C191.966 110.065 191.51 110.755 190.968 111.395C190.451 112.036 189.835 112.541 189.121 112.911C188.406 113.28 187.581 113.465 186.645 113.465Z" fill="white"/>
<path d="M27.466 113.465C25.2487 113.465 23.3517 112.972 21.775 111.987C20.1982 111.001 18.991 109.523 18.1534 107.552C17.3157 105.581 16.8969 103.105 16.8969 100.124C16.8969 97.1924 17.2911 94.7287 18.0795 92.7332C18.8925 90.7376 20.075 89.2471 21.6271 88.2616C23.2039 87.2515 25.1009 86.7465 27.3182 86.7465C28.4022 86.7465 29.4247 86.8573 30.3855 87.079C31.3463 87.2761 32.2332 87.5841 33.0462 88.0029C33.8839 88.3971 34.586 88.9145 35.1527 89.555L34.044 92.1419C33.1325 91.3289 32.1224 90.7376 31.0137 90.368C29.9297 89.9985 28.7595 89.8137 27.503 89.8137C25.1625 89.8137 23.3887 90.6267 22.1815 92.2527C20.9989 93.8541 20.4076 96.4656 20.4076 100.087C20.4076 103.783 21.0112 106.443 22.2184 108.069C23.4256 109.671 25.2611 110.472 27.7247 110.472C28.8334 110.472 29.8681 110.385 30.8289 110.213C31.8144 110.04 32.726 109.782 33.5636 109.437L32.3441 110.915V102.12H27.4291V99.1633H35.4853V111.802C34.8694 112.147 34.1179 112.442 33.231 112.689C32.3687 112.935 31.4325 113.12 30.4224 113.243C29.437 113.391 28.4515 113.465 27.466 113.465ZM41.5534 113.132V94.7657H44.5837V98.7568H44.8054C45.1504 97.5496 45.754 96.5765 46.6162 95.8374C47.4785 95.0736 48.5749 94.6302 49.9052 94.507L51.6421 94.3961L51.9378 97.6112L49.2031 97.796C47.922 97.9192 46.8996 98.4489 46.1358 99.3851C45.3721 100.321 44.9902 101.504 44.9902 102.933V113.132H41.5534ZM60.9831 113.465C59.8991 113.465 58.9136 113.206 58.0267 112.689C57.1644 112.171 56.4746 111.482 55.9572 110.619C55.4645 109.757 55.2181 108.833 55.2181 107.848C55.2181 106.542 55.5753 105.483 56.2898 104.67C57.0042 103.832 58.039 103.228 59.394 102.859C60.749 102.465 62.375 102.268 64.2721 102.268H66.8959V104.707H64.7525C63.6931 104.707 62.7692 104.756 61.9809 104.854C61.2171 104.953 60.5889 105.113 60.0962 105.335C59.6034 105.557 59.2339 105.877 58.9875 106.296C58.7411 106.69 58.618 107.195 58.618 107.811C58.618 108.772 58.9382 109.498 59.5788 109.991C60.244 110.484 61.02 110.73 61.9069 110.73C62.6214 110.73 63.3236 110.521 64.0134 110.102C64.7278 109.659 65.3068 109.067 65.7503 108.328C66.1937 107.564 66.4155 106.727 66.4155 105.815V100.605C66.4155 99.3974 66.0705 98.5351 65.3807 98.0177C64.6909 97.5004 63.6808 97.2417 62.3504 97.2417C61.5128 97.2417 60.6382 97.3649 59.7266 97.6112C58.815 97.8576 57.8789 98.301 56.918 98.9416L55.8094 96.3917C56.5731 95.9236 57.3368 95.5541 58.1006 95.2831C58.889 95.0121 59.6896 94.8026 60.5027 94.6548C61.3403 94.507 62.1779 94.4331 63.0156 94.4331C64.346 94.4331 65.5162 94.6671 66.5263 95.1352C67.5611 95.5787 68.3618 96.2808 68.9284 97.2417C69.495 98.1779 69.7784 99.3974 69.7784 100.9V113.132H66.8959V109.326H66.6741C66.3046 110.065 65.8488 110.755 65.3068 111.395C64.7894 112.036 64.1735 112.541 63.4591 112.911C62.7446 113.28 61.9193 113.465 60.9831 113.465ZM75.623 113.132V94.7657H78.6903V98.2395H78.8751C79.1461 97.5989 79.5279 96.9953 80.0207 96.4287C80.538 95.8374 81.154 95.357 81.8684 94.9874C82.5829 94.6179 83.3836 94.4331 84.2705 94.4331C85.5023 94.4331 86.5617 94.7657 87.4486 95.4309C88.3355 96.0961 88.8899 96.9707 89.1116 98.0547H89.4442C89.8384 97.0939 90.4543 96.2562 91.2919 95.5417C92.1542 94.8026 93.2998 94.4331 94.7288 94.4331C95.7635 94.4331 96.6751 94.6548 97.4634 95.0983C98.2764 95.5417 98.9047 96.2439 99.3481 97.2047C99.7916 98.1655 100.013 99.4343 100.013 101.011V113.132H96.6135V101.307C96.6135 99.8532 96.3794 98.8431 95.9113 98.2764C95.4432 97.6851 94.7411 97.3895 93.8049 97.3895C92.9672 97.3895 92.2158 97.5866 91.5506 97.9808C90.9101 98.375 90.405 98.9046 90.0355 99.5698C89.6659 100.21 89.4812 100.962 89.4812 101.824V113.132H86.1552V101.307C86.1552 99.8778 85.8596 98.8677 85.2683 98.2764C84.7016 97.6851 84.0488 97.3895 83.3097 97.3895C82.4967 97.3895 81.7699 97.6112 81.1293 98.0547C80.4888 98.4981 79.9714 99.0525 79.5772 99.7177C79.2077 100.358 79.0229 101.023 79.0229 101.713V113.132H75.623ZM123.008 113.465C121.9 113.465 120.803 113.366 119.719 113.169C118.66 112.997 117.674 112.726 116.763 112.356C115.851 111.962 115.075 111.482 114.435 110.915L115.543 108.069C116.233 108.661 116.985 109.129 117.798 109.474C118.635 109.794 119.498 110.028 120.384 110.176C121.271 110.299 122.146 110.361 123.008 110.361C124.462 110.361 125.632 110.028 126.519 109.363C127.406 108.673 127.849 107.589 127.849 106.111C127.849 105.347 127.714 104.719 127.443 104.226C127.172 103.709 126.741 103.29 126.149 102.97C125.583 102.649 124.868 102.366 124.006 102.12L120.384 101.196C118.414 100.654 116.997 99.7916 116.135 98.609C115.297 97.4018 114.878 95.9359 114.878 94.2114C114.878 92.6593 115.235 91.3289 115.95 90.2202C116.689 89.1116 117.711 88.2616 119.017 87.6703C120.323 87.0544 121.838 86.7465 123.563 86.7465C124.548 86.7465 125.484 86.8573 126.371 87.079C127.283 87.2761 128.108 87.5718 128.847 87.966C129.586 88.3602 130.239 88.8529 130.806 89.4442L129.697 92.2527C128.884 91.3905 127.96 90.7745 126.926 90.405C125.891 90.0354 124.831 89.8507 123.747 89.8507C122.713 89.8507 121.776 90.0108 120.939 90.3311C120.126 90.6267 119.485 91.0825 119.017 91.6984C118.549 92.3143 118.315 93.115 118.315 94.1005C118.315 95.1352 118.586 95.9852 119.128 96.6504C119.67 97.3156 120.532 97.8206 121.715 98.1655L125.299 99.0525C127.369 99.5452 128.884 100.383 129.845 101.565C130.83 102.723 131.323 104.177 131.323 105.926C131.323 107.429 130.966 108.759 130.251 109.917C129.562 111.051 128.601 111.925 127.369 112.541C126.137 113.157 124.684 113.465 123.008 113.465ZM143.975 113.465C142.177 113.465 140.624 113.132 139.319 112.467C138.038 111.777 137.052 110.73 136.362 109.326C135.697 107.922 135.365 106.123 135.365 103.931C135.365 102.034 135.66 100.371 136.251 98.9416C136.843 97.5127 137.717 96.404 138.875 95.6157C140.033 94.8273 141.462 94.4331 143.162 94.4331C144.763 94.4331 146.094 94.7903 147.153 95.5048C148.237 96.1946 149.038 97.2294 149.555 98.609C150.073 99.9887 150.331 101.664 150.331 103.635V105.002H138.025V102.526H147.966L147.375 103.302C147.375 101.011 147.005 99.4097 146.266 98.4981C145.552 97.5619 144.505 97.0939 143.125 97.0939C142.312 97.0939 141.561 97.3156 140.871 97.759C140.206 98.1779 139.664 98.8554 139.245 99.7916C138.851 100.703 138.654 101.935 138.654 103.487V104.337C138.654 105.865 138.875 107.084 139.319 107.996C139.762 108.907 140.378 109.572 141.166 109.991C141.979 110.41 142.965 110.619 144.123 110.619C144.887 110.619 145.687 110.521 146.525 110.324C147.387 110.102 148.151 109.696 148.816 109.104L149.999 111.506C149.087 112.245 148.114 112.763 147.079 113.058C146.045 113.329 145.01 113.465 143.975 113.465ZM158.23 113.132L153.093 94.7657H156.493L160.004 109.474H160.115L164.143 94.7657H166.841L170.943 109.474H170.98L174.527 94.7657H177.89L172.753 113.132H169.686L165.732 98.7938H165.289L161.26 113.132H158.23ZM186.645 113.465C185.561 113.465 184.575 113.206 183.688 112.689C182.826 112.171 182.136 111.482 181.619 110.619C181.126 109.757 180.88 108.833 180.88 107.848C180.88 106.542 181.237 105.483 181.951 104.67C182.666 103.832 183.7 103.228 185.055 102.859C186.41 102.465 188.036 102.268 189.934 102.268H192.557V104.707H190.414C189.355 104.707 188.431 104.756 187.642 104.854C186.879 104.953 186.25 105.113 185.758 105.335C185.265 105.557 184.895 105.877 184.649 106.296C184.403 106.69 184.279 107.195 184.279 107.811C184.279 108.772 184.6 109.498 185.24 109.991C185.905 110.484 186.681 110.73 187.568 110.73C188.283 110.73 188.985 110.521 189.675 110.102C190.389 109.659 190.968 109.067 191.412 108.328C191.855 107.564 192.077 106.727 192.077 105.815V100.605C192.077 99.3974 191.732 98.5351 191.042 98.0177C190.352 97.5004 189.342 97.2417 188.012 97.2417C187.174 97.2417 186.3 97.3649 185.388 97.6112C184.476 97.8576 183.54 98.301 182.579 98.9416L181.471 96.3917C182.235 95.9236 182.998 95.5541 183.762 95.2831C184.55 95.0121 185.351 94.8026 186.164 94.6548C187.002 94.507 187.839 94.4331 188.677 94.4331C190.007 94.4331 191.178 94.6671 192.188 95.1352C193.223 95.5787 194.023 96.2808 194.59 97.2417C195.156 98.1779 195.44 99.3974 195.44 100.9V113.132H192.557V109.326H192.336C191.966 110.065 191.51 110.755 190.968 111.395C190.451 112.036 189.835 112.541 189.121 112.911C188.406 113.28 187.581 113.465 186.645 113.465Z" fill="#4F46BB"/>
<path d="M101.328 37.7976C106.635 42.8401 113.028 45.6751 120.078 47.0651C123.04 47.6501 126.068 47.9076 129.068 48.3126C133.753 48.9451 134.873 50.6151 133.353 55.1226C130.2 64.4776 125.408 72.6551 116.52 77.7601C103.468 85.2576 85.7276 82.5676 75.9526 71.5451C70.4301 65.3201 68.7376 57.7651 68.8601 49.7026C69.0176 39.2176 72.0301 29.9751 80.7651 23.3326C85.3251 19.8626 92.2651 17.4376 97.1026 17.8351C97.1026 21.9526 97.1276 26.1126 97.0576 30.2701C97.0526 30.6301 96.4551 31.1976 96.0376 31.3026C91.0651 32.5801 87.4001 35.3826 85.3326 40.1651C82.8901 45.8201 82.4376 51.5801 84.5426 57.4101C86.9476 64.0726 91.6451 68.0026 98.7601 68.8301C103.273 69.3551 107.58 68.4701 111.685 66.6376C114.04 65.5851 115.81 63.9026 116.49 61.2776C116.895 59.7126 116.483 58.9426 114.71 58.9926C111.14 59.0926 107.568 59.0701 103.998 59.1051C102.373 59.1201 100.843 58.7301 100.813 56.8351C100.713 50.5751 100.775 44.3101 100.775 38.0476C100.96 37.9626 101.145 37.8801 101.33 37.7951L101.328 37.7976Z" fill="#4F46BB"/>
<path d="M134.315 68.2249C135.28 66.0874 136.305 64.25 136.953 62.2874C137.968 59.215 139.153 56.1049 139.508 52.9249C140.175 46.9524 137.513 43.7349 131.615 42.6149C127.198 41.7774 122.76 41.0624 118.338 40.2449C117.198 40.0349 116.083 39.6674 114.968 39.3374C102.208 35.5649 98.3501 20.6574 107.628 11.0049C111.41 7.06995 116.218 5.24495 121.453 4.41245C127.678 3.42245 133.84 3.64245 139.793 5.95745C146.373 8.51745 150.38 14.1724 150.598 20.8874C150.655 22.6674 150.103 23.4975 148.245 23.3975C146.775 23.3175 145.288 23.3099 143.823 23.4349C140.68 23.7074 138.135 23.2749 136.615 19.8774C136.05 18.6124 134.238 17.6549 132.788 17.0824C128.693 15.4674 124.548 15.84 120.558 17.585C117.925 18.7375 116.328 20.805 116.323 23.7325C116.318 26.4675 118.218 27.99 120.545 28.695C124.088 29.77 127.708 30.6249 131.338 31.3674C133.145 31.7374 135.05 31.6124 136.905 31.7674C146.698 32.5799 153.213 39.8074 153.04 49.6449C152.855 60.2049 144.525 68.6575 134.313 68.2225L134.315 68.2249Z" fill="#4F46BB"/>
</svg>
