<svg width="44" height="40" viewBox="0 0 44 40" fill="none" xmlns="http://www.w3.org/2000/svg">
<path d="M17.1132 17.2405C19.809 19.8017 23.0558 21.2416 26.6366 21.9476C28.1413 22.2447 29.6791 22.3755 31.2028 22.5812C33.5824 22.9025 34.1513 23.7507 33.3792 26.0401C31.778 30.7917 29.3438 34.9451 24.8297 37.538C18.2002 41.3461 9.18976 39.9798 4.22488 34.3814C1.41992 31.2196 0.560276 27.3823 0.622496 23.2872C0.702493 17.9617 2.23259 13.2673 6.66923 9.8935C8.98532 8.13104 12.5103 6.89935 14.9673 7.10124C14.9673 9.19258 14.98 11.3055 14.9444 13.4172C14.9419 13.6 14.6384 13.8883 14.4264 13.9416C11.9008 14.5904 10.0392 16.0139 8.98913 18.443C7.74855 21.3152 7.51871 24.2408 8.58788 27.202C9.80941 30.586 12.1953 32.5821 15.8092 33.0024C18.1011 33.269 20.289 32.8195 22.374 31.8888C23.5701 31.3542 24.4691 30.4996 24.8145 29.1663C25.0202 28.3714 24.8107 27.9804 23.9104 28.0057C22.0972 28.0565 20.2826 28.0451 18.4694 28.0629C17.644 28.0705 16.8669 27.8724 16.8517 26.9099C16.8009 23.7304 16.8326 20.5483 16.8326 17.3675C16.9266 17.3243 17.0205 17.2824 17.1145 17.2392L17.1132 17.2405Z" fill="white"/>
<path d="M33.8682 32.6945C34.3583 31.6088 34.8789 30.6755 35.2078 29.6787C35.7233 28.1182 36.3252 26.5386 36.5055 24.9234C36.8446 21.8899 35.4922 20.2556 32.4968 19.6868C30.2531 19.2614 27.9992 18.8982 25.753 18.483C25.1739 18.3764 24.6076 18.1897 24.0413 18.0221C17.5603 16.106 15.601 8.53423 20.3132 3.63158C22.2344 1.63293 24.6762 0.705987 27.3351 0.283148C30.4969 -0.219688 33.6269 -0.107948 36.6503 1.06788C39.9924 2.36814 42.0278 5.2404 42.1383 8.65105C42.1675 9.55514 41.8869 9.97671 40.9434 9.92592C40.1968 9.88528 39.4413 9.88147 38.6972 9.94496C37.101 10.0834 35.8084 9.8637 35.0364 8.13805C34.7494 7.49554 33.8288 7.00921 33.0923 6.71843C31.0124 5.89815 28.9071 6.08735 26.8805 6.97366C25.5434 7.55903 24.7321 8.60915 24.7295 10.0961C24.727 11.4852 25.692 12.2585 26.8742 12.6166C28.6735 13.1626 30.5121 13.5969 32.3559 13.974C33.2739 14.1619 34.2415 14.0984 35.1837 14.1772C40.1574 14.5898 43.4665 18.2608 43.3789 23.2574C43.2849 28.621 39.054 32.9142 33.8669 32.6932L33.8682 32.6945Z" fill="white"/>
</svg>
