<svg width="192" height="40" viewBox="0 0 192 40" fill="none" xmlns="http://www.w3.org/2000/svg">
<path d="M16.7536 17.2405C19.4494 19.8017 22.6962 21.2416 26.277 21.9476C27.7817 22.2447 29.3194 22.3755 30.8432 22.5812C33.2228 22.9025 33.7916 23.7507 33.0196 26.0401C31.4184 30.7917 28.9842 34.9451 24.4701 37.538C17.8406 41.3461 8.83014 39.9798 3.86527 34.3814C1.0603 31.2196 0.200657 27.3823 0.262877 23.2872C0.342874 17.9617 1.87297 13.2673 6.30961 9.8935C8.6257 8.13104 12.1506 6.89935 14.6077 7.10124C14.6077 9.19258 14.6204 11.3055 14.5848 13.4172C14.5823 13.6 14.2788 13.8883 14.0667 13.9416C11.5411 14.5904 9.67963 16.0139 8.62951 18.443C7.38893 21.3152 7.15909 24.2408 8.22826 27.202C9.44979 30.586 11.8357 32.5821 15.4495 33.0024C17.7415 33.269 19.9294 32.8195 22.0143 31.8888C23.2105 31.3542 24.1095 30.4996 24.4549 29.1663C24.6606 28.3714 24.4511 27.9804 23.5508 28.0057C21.7375 28.0565 19.923 28.0451 18.1098 28.0629C17.2844 28.0705 16.5073 27.8724 16.492 26.9099C16.4412 23.7304 16.473 20.5483 16.473 17.3675C16.567 17.3243 16.6609 17.2824 16.7549 17.2392L16.7536 17.2405Z" fill="white"/>
<path d="M33.5086 32.6945C33.9987 31.6088 34.5193 30.6755 34.8482 29.6787C35.3637 28.1182 35.9656 26.5386 36.1459 24.9234C36.4849 21.8899 35.1326 20.2556 32.1372 19.6868C29.8935 19.2614 27.6396 18.8982 25.3933 18.483C24.8143 18.3764 24.248 18.1897 23.6817 18.0221C17.2007 16.106 15.2414 8.53423 19.9536 3.63158C21.8748 1.63293 24.3166 0.705987 26.9755 0.283148C30.1373 -0.219688 33.2673 -0.107948 36.2907 1.06788C39.6327 2.36814 41.6682 5.2404 41.7787 8.65105C41.8079 9.55514 41.5273 9.97671 40.5838 9.92592C39.8372 9.88528 39.0816 9.88147 38.3376 9.94496C36.7414 10.0834 35.4488 9.8637 34.6768 8.13805C34.3898 7.49554 33.4692 7.00921 32.7327 6.71843C30.6528 5.89815 28.5475 6.08735 26.5209 6.97366C25.1838 7.55903 24.3724 8.60915 24.3699 10.0961C24.3674 11.4852 25.3324 12.2585 26.5146 12.6166C28.3139 13.1626 30.1525 13.5969 31.9962 13.974C32.9143 14.1619 33.8819 14.0984 34.8241 14.1772C39.7978 14.5898 43.1069 18.2608 43.0193 23.2574C42.9253 28.621 38.6944 32.9142 33.5073 32.6932L33.5086 32.6945Z" fill="white"/>
<path d="M56.7041 12.7393V11.2853H61.3965V15.8124C60.3225 16.9029 58.5381 17.5968 56.9355 17.5968C53.7467 17.5968 51.0205 14.9037 51.0205 11.7149C51.0205 8.52613 53.7467 5.84953 56.9355 5.84953C58.5381 5.84953 60.3225 6.52694 61.3965 7.63393L60.2234 8.75744C59.4468 7.91481 58.1085 7.3861 56.9355 7.3861C54.6554 7.3861 52.7388 9.36876 52.7388 11.7149C52.7388 14.0776 54.6554 16.0603 56.9355 16.0603C57.8937 16.0603 58.9677 15.7133 59.7442 15.1185V12.7393H56.7041Z" fill="white"/>
<path d="M65.4302 10.4923C65.9754 9.36876 67.132 8.6583 68.6025 8.6583V10.0792C66.8346 10.0792 65.5789 11.054 65.4302 12.541V17.3986H63.7945V8.85657H65.4302V10.4923Z" fill="white"/>
<path d="M73.7835 8.6583C76.0801 8.6583 77.3523 10.1123 77.3523 12.2271V17.3986H75.7496V16.2255C75.1218 17.1177 73.9487 17.5968 72.9078 17.5968C71.0903 17.5968 69.7521 16.5394 69.7521 14.8707C69.7521 13.1689 71.2886 12.0288 73.1721 12.0288C74.0148 12.0288 74.9235 12.2106 75.7496 12.4915V12.2271C75.7496 11.1532 75.2539 10.0131 73.5522 10.0131C72.7095 10.0131 71.8834 10.3436 71.1399 10.7236L70.5451 9.51746C71.7678 8.90614 72.8417 8.6583 73.7835 8.6583ZM73.2217 16.3081C74.2791 16.3081 75.4687 15.7794 75.7496 14.722V13.5819C75.0557 13.3671 74.2626 13.2515 73.42 13.2515C72.28 13.2515 71.3217 13.8958 71.3217 14.8211C71.3217 15.7463 72.1478 16.3081 73.2217 16.3081Z" fill="white"/>
<path d="M89.2676 8.6583C91.052 8.6583 92.3408 10.0296 92.3408 11.9627V17.3986H90.7381V12.2106C90.7381 10.9549 89.9946 10.0792 88.9207 10.0792C87.698 10.0792 86.8389 10.8888 86.8389 12.0619V17.3986H85.2362V12.2106C85.2362 10.9549 84.4927 10.0792 83.4188 10.0792C82.1961 10.0792 81.337 10.8888 81.337 12.0619V17.3986H79.7013V8.85657H81.337V10.0462C81.7665 9.20354 82.6587 8.6583 83.7492 8.6583C84.9884 8.6583 85.9962 9.31919 86.4919 10.3766C86.8884 9.31919 87.9789 8.6583 89.2676 8.6583Z" fill="white"/>
<path d="M103.533 17.5803C101.633 17.5803 100.063 16.9194 98.8568 15.7629L99.8647 14.5237C100.873 15.482 102.062 16.1098 103.599 16.1098C105.168 16.1098 105.978 15.2837 105.978 14.375C105.978 13.301 105.036 12.888 103.136 12.4584C100.823 11.9132 99.2864 11.2192 99.2864 9.17049C99.2864 7.27044 100.939 5.83301 103.219 5.83301C104.97 5.83301 106.275 6.47737 107.366 7.43566L106.407 8.69135C105.449 7.81567 104.309 7.30348 103.153 7.30348C101.88 7.30348 100.988 8.11307 100.988 9.02179C100.988 10.0792 101.963 10.4427 103.83 10.8888C106.094 11.4175 107.663 12.1775 107.663 14.2098C107.663 16.1263 106.209 17.5803 103.533 17.5803Z" fill="white"/>
<path d="M113.58 16.1429C114.472 16.1429 115.513 15.7463 116.025 15.2176L117.05 16.275C116.29 17.0846 114.803 17.5968 113.597 17.5968C111.217 17.5968 109.202 15.7298 109.202 13.1028C109.202 10.5418 111.102 8.6583 113.464 8.6583C116.075 8.6583 117.578 10.641 117.578 13.6976H110.854C111.069 15.1185 112.11 16.1429 113.58 16.1429ZM113.53 10.1123C112.209 10.1123 111.135 11.0045 110.87 12.3923H115.992C115.811 11.0705 115.001 10.1123 113.53 10.1123Z" fill="white"/>
<path d="M121.219 17.3986L118.344 8.85657H120.013L121.979 15.2176L124.094 8.85657H125.482L127.597 15.2176L129.546 8.85657H131.215L128.34 17.3986H126.837L124.788 11.054L122.723 17.3986H121.219Z" fill="white"/>
<path d="M136.452 8.6583C138.748 8.6583 140.021 10.1123 140.021 12.2271V17.3986H138.418V16.2255C137.79 17.1177 136.617 17.5968 135.576 17.5968C133.759 17.5968 132.42 16.5394 132.42 14.8707C132.42 13.1689 133.957 12.0288 135.84 12.0288C136.683 12.0288 137.592 12.2106 138.418 12.4915V12.2271C138.418 11.1532 137.922 10.0131 136.22 10.0131C135.378 10.0131 134.552 10.3436 133.808 10.7236L133.213 9.51746C134.436 8.90614 135.51 8.6583 136.452 8.6583ZM135.89 16.3081C136.947 16.3081 138.137 15.7794 138.418 14.722V13.5819C137.724 13.3671 136.931 13.2515 136.088 13.2515C134.948 13.2515 133.99 13.8958 133.99 14.8211C133.99 15.7463 134.816 16.3081 135.89 16.3081Z" fill="white"/>
<path d="M53.5355 32.2879C52.4868 32.2879 51.6609 31.9074 51.0205 31.2763L51.4752 30.7102C52.0135 31.2485 52.6724 31.629 53.5633 31.629C54.5471 31.629 55.0482 31.0907 55.0482 30.5153C55.0482 29.8378 54.445 29.5687 53.3313 29.3089C52.0506 29.0119 51.2432 28.6128 51.2432 27.5084C51.2432 26.4876 52.1527 25.6895 53.3777 25.6895C54.3243 25.6895 55.0297 26.0607 55.6143 26.599L55.1689 27.1651C54.6399 26.6546 54.0088 26.3484 53.3406 26.3484C52.5518 26.3484 51.9764 26.8681 51.9764 27.4528C51.9764 28.1117 52.6075 28.3437 53.6933 28.6035C54.909 28.8912 55.7814 29.3274 55.7814 30.4503C55.7814 31.4619 55.0204 32.2879 53.5355 32.2879Z" fill="white"/>
<path d="M58.9393 27.2764C60.2479 27.2764 60.8882 28.1024 60.8882 29.2625V32.1858H60.1922V31.4341C59.8488 32.0002 59.1342 32.2972 58.5031 32.2972C57.4916 32.2972 56.7491 31.7125 56.7491 30.7659C56.7491 29.81 57.6029 29.1696 58.6331 29.1696C59.1528 29.1696 59.7003 29.281 60.1922 29.4388V29.2625C60.1922 28.6128 59.9323 27.8704 58.8929 27.8704C58.4103 27.8704 57.9278 28.0838 57.4916 28.3066L57.2132 27.7405C57.8999 27.3971 58.4753 27.2764 58.9393 27.2764ZM58.6238 31.6846C59.2549 31.6846 60.0066 31.3598 60.1922 30.6824V29.9492C59.756 29.8286 59.2641 29.7543 58.7444 29.7543C58.0298 29.7543 57.4266 30.1627 57.4266 30.738C57.4266 31.332 57.9463 31.6846 58.6238 31.6846Z" fill="white"/>
<path d="M63.0714 28.3251C63.3591 27.6848 64.0458 27.2764 64.9275 27.2764V27.8982C63.8416 27.8982 63.0714 28.5664 63.0714 29.5037V32.1858H62.3753V27.3878H63.0714V28.3251Z" fill="white"/>
<path d="M67.4772 32.1858L65.4355 27.3878H66.215L67.8113 31.3691L69.3797 27.3878H70.1592L68.1454 32.1858H67.4772Z" fill="white"/>
<path d="M75.3054 32.2972C74.5537 32.2972 73.737 31.861 73.3472 31.2392L73.8762 30.7195C74.1268 31.2577 74.7207 31.6382 75.3054 31.6382C76.0571 31.6382 76.5954 31.0072 76.5954 30.107V25.8101H77.3192V30.107C77.3192 31.3877 76.484 32.2972 75.3054 32.2972Z" fill="white"/>
<path d="M80.7719 27.2764C82.0805 27.2764 82.7208 28.1024 82.7208 29.2625V32.1858H82.0248V31.4341C81.6814 32.0002 80.9668 32.2972 80.3357 32.2972C79.3242 32.2972 78.5817 31.7125 78.5817 30.7659C78.5817 29.81 79.4355 29.1696 80.4657 29.1696C80.9854 29.1696 81.5329 29.281 82.0248 29.4388V29.2625C82.0248 28.6128 81.7649 27.8704 80.7255 27.8704C80.2429 27.8704 79.7603 28.0838 79.3242 28.3066L79.0457 27.7405C79.7325 27.3971 80.3079 27.2764 80.7719 27.2764ZM80.4564 31.6846C81.0874 31.6846 81.8392 31.3598 82.0248 30.6824V29.9492C81.5886 29.8286 81.0967 29.7543 80.577 29.7543C79.8624 29.7543 79.2592 30.1627 79.2592 30.738C79.2592 31.332 79.7789 31.6846 80.4564 31.6846Z" fill="white"/>
<path d="M86.4259 27.2764C87.4839 27.2764 88.2263 28.0467 88.2263 29.1325V32.1858H87.5303V29.2253C87.5303 28.4458 87.0384 27.8982 86.3331 27.8982C85.5257 27.8982 84.8483 28.4643 84.8483 29.1325V32.1858H84.1522V27.3878H84.8483V28.1581C85.1267 27.6477 85.7485 27.2764 86.4259 27.2764Z" fill="white"/>
<path d="M96.8371 25.8101H97.5609V32.1858H96.8371V29.281H93.0785V32.1858H92.3546V25.8101H93.0785V28.5943H96.8371V25.8101Z" fill="white"/>
<path d="M99.3405 26.5154C99.0806 26.5154 98.8764 26.302 98.8764 26.0514C98.8764 25.8101 99.0806 25.5967 99.3405 25.5967C99.591 25.5967 99.7952 25.8101 99.7952 26.0514C99.7952 26.302 99.591 26.5154 99.3405 26.5154ZM98.9878 32.1858V27.3878H99.6838V32.1858H98.9878Z" fill="white"/>
<path d="M103.188 31.4805L103.532 31.9909C103.281 32.1858 102.965 32.2972 102.641 32.2972C101.954 32.2972 101.471 31.7867 101.471 31.0721V28.0096H100.72V27.3878H101.471V26.07H102.167V27.3878H103.346V28.0096H102.167V31.0721C102.167 31.4248 102.409 31.6754 102.687 31.6754C102.901 31.6754 103.086 31.5918 103.188 31.4805Z" fill="white"/>
<path d="M106.465 27.2764C107.774 27.2764 108.414 28.1024 108.414 29.2625V32.1858H107.718V31.4341C107.375 32.0002 106.66 32.2972 106.029 32.2972C105.018 32.2972 104.275 31.7125 104.275 30.7659C104.275 29.81 105.129 29.1696 106.159 29.1696C106.679 29.1696 107.226 29.281 107.718 29.4388V29.2625C107.718 28.6128 107.458 27.8704 106.419 27.8704C105.936 27.8704 105.454 28.0838 105.018 28.3066L104.739 27.7405C105.426 27.3971 106.001 27.2764 106.465 27.2764ZM106.15 31.6846C106.781 31.6846 107.533 31.3598 107.718 30.6824V29.9492C107.282 29.8286 106.79 29.7543 106.27 29.7543C105.556 29.7543 104.953 30.1627 104.953 30.738C104.953 31.332 105.472 31.6846 106.15 31.6846Z" fill="white"/>
<path d="M110.551 33.8563C110.273 33.8563 110.013 33.8006 109.79 33.6985L109.957 33.1046C110.124 33.1881 110.319 33.2252 110.523 33.2252C110.829 33.2252 111.034 33.1231 111.219 32.7983L111.498 32.2043L109.409 27.3878H110.18L111.859 31.3784L113.446 27.3878H114.198L112.008 32.7241C111.674 33.5407 111.21 33.847 110.551 33.8563Z" fill="white"/>
<path d="M114.549 33.4201L114.205 33.1602C114.456 32.8725 114.614 32.5848 114.688 32.2972C114.409 32.2972 114.187 32.0651 114.187 31.7867C114.187 31.5269 114.4 31.2949 114.697 31.2949C115.05 31.2949 115.263 31.6104 115.263 32.0373C115.263 32.4085 115.106 32.7241 114.549 33.4201Z" fill="white"/>
<path d="M121.553 32.2879C120.504 32.2879 119.678 31.9074 119.038 31.2763L119.492 30.7102C120.031 31.2485 120.69 31.629 121.581 31.629C122.564 31.629 123.065 31.0907 123.065 30.5153C123.065 29.8378 122.462 29.5687 121.349 29.3089C120.068 29.0119 119.26 28.6128 119.26 27.5084C119.26 26.4876 120.17 25.6895 121.395 25.6895C122.342 25.6895 123.047 26.0607 123.632 26.599L123.186 27.1651C122.657 26.6546 122.026 26.3484 121.358 26.3484C120.569 26.3484 119.994 26.8681 119.994 27.4528C119.994 28.1117 120.625 28.3437 121.711 28.6035C122.926 28.8912 123.799 29.3274 123.799 30.4503C123.799 31.4619 123.038 32.2879 121.553 32.2879Z" fill="white"/>
<path d="M126.957 27.2764C128.265 27.2764 128.905 28.1024 128.905 29.2625V32.1858H128.209V31.4341C127.866 32.0002 127.151 32.2972 126.52 32.2972C125.509 32.2972 124.766 31.7125 124.766 30.7659C124.766 29.81 125.62 29.1696 126.65 29.1696C127.17 29.1696 127.718 29.281 128.209 29.4388V29.2625C128.209 28.6128 127.95 27.8704 126.91 27.8704C126.428 27.8704 125.945 28.0838 125.509 28.3066L125.23 27.7405C125.917 27.3971 126.493 27.2764 126.957 27.2764ZM126.641 31.6846C127.272 31.6846 128.024 31.3598 128.209 30.6824V29.9492C127.773 29.8286 127.281 29.7543 126.762 29.7543C126.047 29.7543 125.444 30.1627 125.444 30.738C125.444 31.332 125.964 31.6846 126.641 31.6846Z" fill="white"/>
<path d="M131.089 28.3251C131.376 27.6848 132.063 27.2764 132.945 27.2764V27.8982C131.859 27.8982 131.089 28.5664 131.089 29.5037V32.1858H130.393V27.3878H131.089V28.3251Z" fill="white"/>
<path d="M135.494 32.1858L133.453 27.3878H134.232L135.829 31.3691L137.397 27.3878H138.176L136.163 32.1858H135.494Z" fill="white"/>
<path d="M143.323 32.2972C142.571 32.2972 141.754 31.861 141.364 31.2392L141.893 30.7195C142.144 31.2577 142.738 31.6382 143.323 31.6382C144.074 31.6382 144.613 31.0072 144.613 30.107V25.8101H145.336V30.107C145.336 31.3877 144.501 32.2972 143.323 32.2972Z" fill="white"/>
<path d="M148.789 27.2764C150.098 27.2764 150.738 28.1024 150.738 29.2625V32.1858H150.042V31.4341C149.699 32.0002 148.984 32.2972 148.353 32.2972C147.341 32.2972 146.599 31.7125 146.599 30.7659C146.599 29.81 147.453 29.1696 148.483 29.1696C149.003 29.1696 149.55 29.281 150.042 29.4388V29.2625C150.042 28.6128 149.782 27.8704 148.743 27.8704C148.26 27.8704 147.778 28.0838 147.341 28.3066L147.063 27.7405C147.75 27.3971 148.325 27.2764 148.789 27.2764ZM148.474 31.6846C149.105 31.6846 149.856 31.3598 150.042 30.6824V29.9492C149.606 29.8286 149.114 29.7543 148.594 29.7543C147.88 29.7543 147.276 30.1627 147.276 30.738C147.276 31.332 147.796 31.6846 148.474 31.6846Z" fill="white"/>
<path d="M154.443 27.2764C155.501 27.2764 156.244 28.0467 156.244 29.1325V32.1858H155.548V29.2253C155.548 28.4458 155.056 27.8982 154.35 27.8982C153.543 27.8982 152.866 28.4643 152.866 29.1325V32.1858H152.169V27.3878H152.866V28.1581C153.144 27.6477 153.766 27.2764 154.443 27.2764Z" fill="white"/>
<path d="M162.581 32.2879C161.532 32.2879 160.706 31.9074 160.066 31.2763L160.52 30.7102C161.059 31.2485 161.718 31.629 162.608 31.629C163.592 31.629 164.093 31.0907 164.093 30.5153C164.093 29.8378 163.49 29.5687 162.376 29.3089C161.096 29.0119 160.288 28.6128 160.288 27.5084C160.288 26.4876 161.198 25.6895 162.423 25.6895C163.369 25.6895 164.075 26.0607 164.659 26.599L164.214 27.1651C163.685 26.6546 163.054 26.3484 162.386 26.3484C161.597 26.3484 161.021 26.8681 161.021 27.4528C161.021 28.1117 161.653 28.3437 162.738 28.6035C163.954 28.8912 164.826 29.3274 164.826 30.4503C164.826 31.4619 164.065 32.2879 162.581 32.2879Z" fill="white"/>
<path d="M169.414 27.3878H170.11V32.1858H169.414V31.4155C169.135 31.9259 168.513 32.2972 167.836 32.2972C166.778 32.2972 166.036 31.5269 166.036 30.4411V27.3878H166.732V30.3483C166.732 31.1278 167.223 31.6754 167.929 31.6754C168.736 31.6754 169.414 31.1093 169.414 30.4411V27.3878Z" fill="white"/>
<path d="M175.732 27.3878L173.569 29.5873L175.611 32.1858H174.739L173.077 30.0606L172.214 30.9144V32.1858H171.518V25.6988H172.214V30.042L174.841 27.3878H175.732Z" fill="white"/>
<path d="M178.85 27.2764C179.908 27.2764 180.65 28.0467 180.65 29.1325V32.1858H179.954V29.2253C179.954 28.4458 179.462 27.8982 178.757 27.8982C177.949 27.8982 177.272 28.4643 177.272 29.1325V32.1858H176.576V25.6988H177.272V28.1581C177.55 27.6477 178.172 27.2764 178.85 27.2764Z" fill="white"/>
<path d="M184.008 27.2764C185.316 27.2764 185.957 28.1024 185.957 29.2625V32.1858H185.261V31.4341C184.917 32.0002 184.203 32.2972 183.571 32.2972C182.56 32.2972 181.817 31.7125 181.817 30.7659C181.817 29.81 182.671 29.1696 183.701 29.1696C184.221 29.1696 184.769 29.281 185.261 29.4388V29.2625C185.261 28.6128 185.001 27.8704 183.961 27.8704C183.479 27.8704 182.996 28.0838 182.56 28.3066L182.281 27.7405C182.968 27.3971 183.544 27.2764 184.008 27.2764ZM183.692 31.6846C184.323 31.6846 185.075 31.3598 185.261 30.6824V29.9492C184.824 29.8286 184.332 29.7543 183.813 29.7543C183.098 29.7543 182.495 30.1627 182.495 30.738C182.495 31.332 183.015 31.6846 183.692 31.6846Z" fill="white"/>
<path d="M188.093 33.8563C187.815 33.8563 187.555 33.8006 187.332 33.6985L187.499 33.1046C187.666 33.1881 187.861 33.2252 188.065 33.2252C188.372 33.2252 188.576 33.1231 188.761 32.7983L189.04 32.2043L186.952 27.3878H187.722L189.402 31.3784L190.989 27.3878H191.741L189.55 32.7241C189.216 33.5407 188.752 33.847 188.093 33.8563Z" fill="white"/>
</svg>
