<svg width="40" height="40" viewBox="0 0 40 40" fill="none" xmlns="http://www.w3.org/2000/svg">
<rect width="40" height="40.0003" rx="19" fill="#4F46BB" fill-opacity="0.1"/>
<path d="M20.8814 20.0014L24.8094 16.0732C24.8691 16.0156 24.9166 15.9467 24.9493 15.8706C24.982 15.7944 24.9993 15.7125 25 15.6296C25.0007 15.5468 24.9849 15.4646 24.9535 15.3878C24.9221 15.3111 24.8758 15.2414 24.8172 15.1828C24.7586 15.1242 24.6889 15.0779 24.6122 15.0465C24.5354 15.0151 24.4532 14.9993 24.3704 15C24.2875 15.0007 24.2056 15.018 24.1294 15.0507C24.0533 15.0834 23.9844 15.1309 23.9268 15.1906L19.9986 19.1186L16.0706 15.1906C15.9531 15.0757 15.795 15.0117 15.6307 15.0126C15.4663 15.0135 15.309 15.0792 15.1927 15.1954C15.0765 15.3116 15.0108 15.4689 15.0099 15.6333C15.009 15.7976 15.0729 15.9557 15.1878 16.0732L19.116 20.0014L15.1878 23.9295C15.1287 23.9873 15.0817 24.0561 15.0495 24.1321C15.0173 24.2081 15.0005 24.2898 15 24.3724C14.9996 24.4549 15.0155 24.5367 15.0469 24.6131C15.0783 24.6895 15.1245 24.7588 15.1829 24.8172C15.2413 24.8756 15.3106 24.9218 15.387 24.9532C15.4634 24.9845 15.5452 25.0005 15.6278 25C15.7103 24.9995 15.792 24.9827 15.868 24.9504C15.944 24.9182 16.0128 24.8712 16.0706 24.8122L19.9986 20.8842L23.9268 24.8122C24.0487 24.934 24.2085 24.9951 24.3681 24.9951C24.5278 24.9951 24.6877 24.934 24.8094 24.8122C24.9265 24.6951 24.9922 24.5364 24.9922 24.3708C24.9922 24.2053 24.9265 24.0466 24.8094 23.9295L20.8814 20.0014Z" fill="#4F46BB"/>
</svg>
