<svg width="20" height="22" viewBox="0 0 20 22" fill="none" xmlns="http://www.w3.org/2000/svg">
<path d="M17.2161 13.8253C17.9962 15.288 18.7764 15.8731 18.7764 15.8731H1.22363C1.22363 15.8731 4.14909 13.9228 4.14909 7.09676C4.14909 3.87876 6.782 1.24585 10 1.24585C10.6826 1.24585 11.2677 1.34336 11.8528 1.5384M8.34224 19.7737C8.50547 20.0706 8.74542 20.3182 9.03703 20.4907C9.32864 20.6631 9.66121 20.7541 10 20.7541C10.3388 20.7541 10.6714 20.6631 10.963 20.4907C11.2546 20.3182 11.4945 20.0706 11.6578 19.7737M18.7764 7.09676C18.7764 8.71245 17.4666 10.0222 15.8509 10.0222C14.2352 10.0222 12.9255 8.71245 12.9255 7.09676C12.9255 5.48108 14.2352 4.17131 15.8509 4.17131C17.4666 4.17131 18.7764 5.48108 18.7764 7.09676Z" stroke="white" stroke-width="2" stroke-linecap="round" stroke-linejoin="round"/>
</svg>
