<svg width="24" height="24" viewBox="0 0 24 24" fill="none" xmlns="http://www.w3.org/2000/svg">
<path d="M11.6605 1.44577C7.54999 1.58291 3.71753 4.12942 2.14772 8.20359C2.14615 8.20745 2.14462 8.21133 2.14314 8.21523C2.14092 8.22045 2.13878 8.22569 2.13671 8.23097C0.0588149 13.669 2.78777 19.7791 8.22442 21.8608C13.661 23.9425 19.7729 21.2177 21.8584 15.7826C23.944 10.3475 21.2234 4.23371 15.7897 2.1444C14.4313 1.62207 13.0303 1.40007 11.6601 1.44577H11.6605ZM11.6949 2.65382C12.9079 2.61457 14.1495 2.81244 15.3551 3.27601C20.1774 5.13028 22.5778 10.5245 20.7269 15.3482C18.876 20.1719 13.4834 22.576 8.65838 20.7285C3.83338 18.881 1.42554 13.4901 3.26965 8.66379C3.27154 8.65916 3.27338 8.6545 3.27516 8.64983C3.27672 8.64638 3.27825 8.64292 3.27974 8.63945C4.67295 5.02363 8.05643 2.77157 11.6956 2.65382H11.6949Z" fill="white"/>
<path d="M15.4974 8.42137C15.3592 8.28676 15.1732 8.21256 14.9803 8.21511C14.7874 8.21765 14.6034 8.29672 14.4688 8.43493L8.50084 14.5622C8.36623 14.7004 8.29201 14.8864 8.29455 15.0794C8.2971 15.2723 8.37619 15.4563 8.51439 15.5909C8.6526 15.7255 8.83862 15.7997 9.03154 15.7972C9.22445 15.7946 9.40845 15.7155 9.54307 15.5773L15.511 9.45004C15.6456 9.31183 15.7198 9.12583 15.7173 8.93291C15.7147 8.74 15.6356 8.55599 15.4974 8.42137Z" fill="white"/>
<path d="M9.44982 8.50072C9.31162 8.36611 9.12558 8.29191 8.93267 8.29445C8.73975 8.29699 8.55577 8.37607 8.42115 8.51427C8.3545 8.58271 8.30196 8.66359 8.26657 8.75232C8.23118 8.84105 8.21361 8.93589 8.21487 9.03142C8.21613 9.12694 8.23621 9.22127 8.27392 9.30903C8.31164 9.3968 8.36628 9.47629 8.43471 9.54294L14.5622 15.511C14.6306 15.5776 14.7115 15.6301 14.8002 15.6655C14.8889 15.7009 14.9838 15.7185 15.0793 15.7172C15.1748 15.716 15.2692 15.6959 15.3569 15.6582C15.4447 15.6205 15.5242 15.5658 15.5908 15.4974C15.7254 15.3592 15.7996 15.1732 15.7971 14.9803C15.7945 14.7874 15.7155 14.6033 15.5773 14.4687L9.44982 8.50072Z" fill="white"/>
</svg>
